<svg width="32" height="32" viewBox="0 0 32 32" fill="none" xmlns="http://www.w3.org/2000/svg">
<path d="M16 32C24.8366 32 32 24.8366 32 16C32 7.16344 24.8366 0 16 0C7.16344 0 0 7.16344 0 16C0 24.8366 7.16344 32 16 32Z" fill="black"/>
<path d="M16 32C24.8366 32 32 24.8366 32 16C32 7.16344 24.8366 0 16 0C7.16344 0 0 7.16344 0 16C0 24.8366 7.16344 32 16 32Z" fill="#2E3148"/>
<path style="mix-blend-mode:soft-light" d="M16 32C24.8366 32 32 24.8366 32 16C32 7.16344 24.8366 0 16 0C7.16344 0 0 7.16344 0 16C0 24.8366 7.16344 32 16 32Z" fill="url(#paint0_linear_621_7411)"/>
<path d="M16.0228 4.83203C14.6415 4.83203 13.5215 9.84216 13.5215 16.0214C13.5215 22.2006 14.6415 27.2107 16.0228 27.2107C17.4031 27.2107 18.5231 22.2006 18.5231 16.0214C18.5231 9.84216 17.4031 4.83203 16.0228 4.83203ZM16.1956 26.5782C16.0378 26.7894 15.8788 26.6315 15.8788 26.6315C15.2431 25.8934 14.9252 24.5248 14.9252 24.5248C13.8127 20.944 14.0772 13.2566 14.0772 13.2566C14.5999 7.15417 15.5514 5.71203 15.8746 5.39203C15.9077 5.35921 15.9513 5.33917 15.9978 5.33546C16.0442 5.33175 16.0905 5.34461 16.1284 5.37176C16.5978 5.70563 16.9924 7.09656 16.9924 7.09656C18.1551 11.4144 18.0495 15.4678 18.0495 15.4678C18.1551 18.9963 17.4671 22.9451 17.4671 22.9451C16.937 25.9467 16.1956 26.5782 16.1956 26.5782Z" fill="white"/>
<path d="M25.7268 10.4526C25.0388 9.2537 20.1374 10.7758 14.7753 13.851C9.41318 16.9262 5.63078 20.3897 6.31664 21.5886C7.00464 22.7876 11.907 21.2654 17.2692 18.1902C22.6313 15.115 26.4137 11.6505 25.7268 10.4526ZM6.95024 21.4233C6.68784 21.3913 6.74758 21.1737 6.74758 21.1737C7.06971 20.2564 8.09798 19.2985 8.09798 19.2985C10.6505 16.5518 17.4516 12.9561 17.4516 12.9561C23.0046 10.3726 24.7294 10.4814 25.1668 10.6009C25.2119 10.6133 25.2512 10.6413 25.2776 10.68C25.304 10.7187 25.3157 10.7655 25.3108 10.8121C25.2574 11.3849 24.2441 12.4196 24.2441 12.4196C21.0804 15.578 17.5113 17.5054 17.5113 17.5054C14.5033 19.3529 10.7348 20.7193 10.7348 20.7193C7.86758 21.7518 6.95024 21.4233 6.95024 21.4233Z" fill="white"/>
<path d="M25.7029 21.6285C26.3963 20.4339 22.6235 16.9533 17.2784 13.8547C11.9344 10.7571 7.03415 9.21679 6.34188 10.4136C5.64855 11.6115 9.42241 15.0888 14.7685 18.1875C20.1157 21.2851 25.0107 22.8253 25.7029 21.6285ZM6.80161 10.8755C6.69815 10.6323 6.91468 10.5736 6.91468 10.5736C7.87148 10.3923 9.21548 10.8051 9.21548 10.8051C12.8709 11.6371 19.3893 15.7203 19.3893 15.7203C24.408 19.2317 25.1781 20.7795 25.2933 21.2179C25.305 21.2629 25.3004 21.3106 25.2803 21.3526C25.2602 21.3945 25.2259 21.428 25.1835 21.4472C24.6608 21.6872 23.2581 21.3299 23.2581 21.3299C18.9381 20.1715 15.4832 18.0499 15.4832 18.0499C12.3792 16.3752 9.30935 13.7992 9.30935 13.7992C6.97655 11.8344 6.80268 10.8765 6.80268 10.8765L6.80055 10.8755H6.80161Z" fill="white"/>
<path d="M15.996 17.3103C16.7229 17.3103 17.3122 16.721 17.3122 15.994C17.3122 15.267 16.7229 14.6777 15.996 14.6777C15.269 14.6777 14.6797 15.267 14.6797 15.994C14.6797 16.721 15.269 17.3103 15.996 17.3103Z" fill="white"/>
<path d="M21.3928 12.0064C21.9819 12.0064 22.4595 11.5288 22.4595 10.9397C22.4595 10.3506 21.9819 9.87305 21.3928 9.87305C20.8037 9.87305 20.3262 10.3506 20.3262 10.9397C20.3262 11.5288 20.8037 12.0064 21.3928 12.0064Z" fill="white"/>
<path d="M8.85964 14.6919C9.44874 14.6919 9.9263 14.2144 9.9263 13.6253C9.9263 13.0362 9.44874 12.5586 8.85964 12.5586C8.27053 12.5586 7.79297 13.0362 7.79297 13.6253C7.79297 14.2144 8.27053 14.6919 8.85964 14.6919Z" fill="white"/>
<path d="M14.4417 24.3794C15.0308 24.3794 15.5083 23.9019 15.5083 23.3128C15.5083 22.7237 15.0308 22.2461 14.4417 22.2461C13.8526 22.2461 13.375 22.7237 13.375 23.3128C13.375 23.9019 13.8526 24.3794 14.4417 24.3794Z" fill="white"/>
<defs>
<linearGradient id="paint0_linear_621_7411" x1="1600" y1="0" x2="1600" y2="3200" gradientUnits="userSpaceOnUse">
<stop stop-color="white" stop-opacity="0.5"/>
<stop offset="1" stop-opacity="0.5"/>
</linearGradient>
</defs>
</svg>
