<svg width="32" height="32" viewBox="0 0 32 32" fill="none" xmlns="http://www.w3.org/2000/svg">
<path fill-rule="evenodd" clip-rule="evenodd" d="M16 32C7.163 32 0 24.837 0 16C0 7.163 7.163 0 16 0C24.837 0 32 7.163 32 16C32 24.837 24.837 32 16 32ZM16.941 24.577L23.179 21.034C23.37 21.243 23.647 21.374 23.955 21.374C24.532 21.374 25 20.914 25 20.346C25 19.859 24.656 19.451 24.195 19.345L24.213 12.324C24.665 12.211 25 11.807 25 11.327C25 10.759 24.532 10.299 23.955 10.299C23.7883 10.2985 23.624 10.3377 23.4755 10.4134C23.327 10.489 23.1986 10.5989 23.101 10.734L16.993 7.265C17.0273 7.11281 17.0268 6.95485 16.9916 6.80287C16.9564 6.65089 16.8873 6.50882 16.7896 6.38723C16.6918 6.26565 16.5679 6.16768 16.427 6.10064C16.2862 6.03359 16.132 5.99919 15.976 6C15.8194 5.99925 15.6647 6.03396 15.5235 6.10154C15.3822 6.16912 15.2581 6.2678 15.1605 6.39019C15.0628 6.51258 14.9941 6.65549 14.9596 6.80822C14.925 6.96094 14.9255 7.1195 14.961 7.272L8.889 10.72C8.79106 10.5886 8.6637 10.482 8.51713 10.4087C8.37056 10.3355 8.20887 10.2975 8.045 10.298C7.77021 10.2967 7.50605 10.4041 7.31025 10.5969C7.11444 10.7898 7.0029 11.0522 7 11.327C7 11.807 7.333 12.209 7.784 12.323V19.35C7.56115 19.4052 7.36306 19.5331 7.22107 19.7135C7.07907 19.8938 7.00128 20.1164 7 20.346C7 20.914 7.468 21.374 8.045 21.374C8.34 21.374 8.606 21.254 8.796 21.06L15.007 24.587C14.9567 24.7091 14.9309 24.8399 14.931 24.972C14.931 25.54 15.399 26 15.976 26C16.553 26 17.021 25.54 17.021 24.972C17.021 24.832 16.993 24.699 16.941 24.577ZM16.662 24.197C16.471 24.0332 16.2276 23.9434 15.976 23.944C15.71 23.944 15.466 24.042 15.282 24.204L9.04 20.659C9.10531 20.4591 9.10671 20.2438 9.044 20.043L15.021 16.016C15.1315 16.1566 15.271 16.2717 15.43 16.3536C15.589 16.4355 15.7637 16.4822 15.9424 16.4906C16.121 16.4989 16.2994 16.4687 16.4653 16.402C16.6312 16.3353 16.7808 16.2337 16.904 16.104L22.97 20.004C22.8984 20.2038 22.8914 20.421 22.95 20.625L16.662 24.197ZM16.781 7.684L22.922 11.172C22.8843 11.433 22.9478 11.6985 23.0995 11.9142C23.2512 12.1298 23.4796 12.2793 23.738 12.332L23.72 19.344C23.53 19.387 23.36 19.481 23.226 19.61L17.155 15.707C17.207 15.573 17.235 15.427 17.235 15.276C17.2334 14.9888 17.1305 14.7115 16.9444 14.4927C16.7584 14.2739 16.5012 14.1278 16.218 14.08L16.234 8.025C16.451 7.97 16.642 7.848 16.781 7.684ZM15.176 7.689C15.323 7.861 15.526 7.986 15.759 8.034L15.743 14.087C15.5803 14.1203 15.4262 14.1864 15.29 14.2813C15.1538 14.3762 15.0383 14.498 14.9508 14.6391C14.8633 14.7801 14.8055 14.9376 14.7809 15.1018C14.7564 15.266 14.7656 15.4335 14.808 15.594L8.803 19.638C8.65602 19.4857 8.46637 19.3814 8.259 19.339V12.334C8.52137 12.2813 8.75305 12.1289 8.90526 11.9088C9.05747 11.6887 9.11832 11.4181 9.075 11.154L15.176 7.689Z" fill="black"/>
</svg>
