<svg width="224" height="640" viewBox="0 0 224 640" fill="none" xmlns="http://www.w3.org/2000/svg">
<g clip-path="url(#clip0_545_40322)">
<rect width="224" height="640" rx="24" fill="url(#paint0_radial_545_40322)"/>
<path fill-rule="evenodd" clip-rule="evenodd" d="M112 265.828C87.6044 265.828 67.8278 285.604 67.8278 310C67.8278 334.396 87.6044 354.172 112 354.172C136.396 354.172 156.172 334.396 156.172 310C156.172 285.604 136.396 265.828 112 265.828ZM69.7483 310C69.7483 286.665 88.6651 267.748 112 267.748C135.335 267.748 154.252 286.665 154.252 310C154.252 333.335 135.335 352.252 112 352.252C88.6651 352.252 69.7483 333.335 69.7483 310Z" fill="url(#paint1_radial_545_40322)"/>
<path fill-rule="evenodd" clip-rule="evenodd" d="M112 258.626C83.6268 258.626 60.6258 281.627 60.6258 310C60.6258 338.373 83.6268 361.374 112 361.374C140.373 361.374 163.374 338.373 163.374 310C163.374 281.627 140.373 258.626 112 258.626ZM62.5464 310C62.5464 282.688 84.6875 260.546 112 260.546C139.312 260.546 161.454 282.688 161.454 310C161.454 337.312 139.312 359.454 112 359.454C84.6875 359.454 62.5464 337.312 62.5464 310Z" fill="url(#paint2_radial_545_40322)"/>
<path fill-rule="evenodd" clip-rule="evenodd" d="M53.4238 310C53.4238 277.649 79.6493 251.424 112 251.424C144.351 251.424 170.576 277.649 170.576 310C170.576 342.351 144.351 368.576 112 368.576C79.6493 368.576 53.4238 342.351 53.4238 310ZM112 253.344C80.71 253.344 55.3444 278.71 55.3444 310C55.3444 341.29 80.71 366.656 112 366.656C143.29 366.656 168.656 341.29 168.656 310C168.656 278.71 143.29 253.344 112 253.344Z" fill="url(#paint3_radial_545_40322)"/>
<path fill-rule="evenodd" clip-rule="evenodd" d="M46.2219 310C46.2219 273.672 75.6717 244.222 112 244.222C148.328 244.222 177.778 273.672 177.778 310C177.778 346.328 148.328 375.778 112 375.778C75.6717 375.778 46.2219 346.328 46.2219 310ZM112 246.142C76.7324 246.142 48.1424 274.732 48.1424 310C48.1424 345.268 76.7324 373.858 112 373.858C147.268 373.858 175.858 345.268 175.858 310C175.858 274.732 147.268 246.142 112 246.142Z" fill="url(#paint4_radial_545_40322)"/>
<path fill-rule="evenodd" clip-rule="evenodd" d="M39.0199 310C39.0199 269.694 71.6942 237.02 112 237.02C152.306 237.02 184.98 269.694 184.98 310C184.98 350.306 152.306 382.98 112 382.98C71.6942 382.98 39.0199 350.306 39.0199 310ZM112 238.94C72.7549 238.94 40.9404 270.755 40.9404 310C40.9404 349.245 72.7549 381.06 112 381.06C151.245 381.06 183.06 349.245 183.06 310C183.06 270.755 151.245 238.94 112 238.94Z" fill="url(#paint5_radial_545_40322)"/>
<path fill-rule="evenodd" clip-rule="evenodd" d="M112 229.818C67.7166 229.818 31.8179 265.717 31.8179 310C31.8179 354.283 67.7166 390.182 112 390.182C156.283 390.182 192.182 354.283 192.182 310C192.182 265.717 156.283 229.818 112 229.818ZM33.7384 310C33.7384 266.777 68.7773 231.738 112 231.738C155.223 231.738 190.262 266.777 190.262 310C190.262 353.223 155.223 388.262 112 388.262C68.7773 388.262 33.7384 353.223 33.7384 310Z" fill="url(#paint6_radial_545_40322)"/>
<path fill-rule="evenodd" clip-rule="evenodd" d="M24.6159 310C24.6159 261.739 63.7391 222.616 112 222.616C160.261 222.616 199.384 261.739 199.384 310C199.384 358.261 160.261 397.384 112 397.384C63.7391 397.384 24.6159 358.261 24.6159 310ZM112 224.536C64.7998 224.536 26.5364 262.8 26.5364 310C26.5364 357.2 64.7998 395.464 112 395.464C159.2 395.464 197.464 357.2 197.464 310C197.464 262.8 159.2 224.536 112 224.536Z" fill="url(#paint7_radial_545_40322)"/>
<path fill-rule="evenodd" clip-rule="evenodd" d="M112 215.414C59.7616 215.414 17.4139 257.762 17.4139 310C17.4139 362.238 59.7616 404.586 112 404.586C164.238 404.586 206.586 362.238 206.586 310C206.586 257.762 164.238 215.414 112 215.414ZM19.3344 310C19.3344 258.822 60.8222 217.334 112 217.334C163.178 217.334 204.666 258.822 204.666 310C204.666 361.178 163.178 402.666 112 402.666C60.8222 402.666 19.3344 361.178 19.3344 310Z" fill="url(#paint8_radial_545_40322)"/>
<path fill-rule="evenodd" clip-rule="evenodd" d="M10.2119 310C10.2119 253.784 55.784 208.212 112 208.212C168.216 208.212 213.788 253.784 213.788 310C213.788 366.216 168.216 411.788 112 411.788C55.784 411.788 10.2119 366.216 10.2119 310ZM112 210.132C56.8447 210.132 12.1325 254.845 12.1325 310C12.1325 365.155 56.8447 409.868 112 409.868C167.155 409.868 211.868 365.155 211.868 310C211.868 254.845 167.155 210.132 112 210.132Z" fill="url(#paint9_radial_545_40322)"/>
<path fill-rule="evenodd" clip-rule="evenodd" d="M112 201.01C51.8064 201.01 3.00993 249.806 3.00993 310C3.00993 370.194 51.8064 418.99 112 418.99C172.194 418.99 220.99 370.194 220.99 310C220.99 249.806 172.194 201.01 112 201.01ZM4.93046 310C4.93046 250.867 52.8671 202.93 112 202.93C171.133 202.93 219.07 250.867 219.07 310C219.07 369.133 171.133 417.07 112 417.07C52.8671 417.07 4.93046 369.133 4.93046 310Z" fill="url(#paint10_radial_545_40322)"/>
<path fill-rule="evenodd" clip-rule="evenodd" d="M-4.19205 310C-4.19205 245.829 47.8289 193.808 112 193.808C176.171 193.808 228.192 245.829 228.192 310C228.192 374.171 176.171 426.192 112 426.192C47.8289 426.192 -4.19205 374.171 -4.19205 310ZM112 195.728C48.8896 195.728 -2.27152 246.89 -2.27152 310C-2.27152 373.11 48.8896 424.272 112 424.272C175.11 424.272 226.272 373.11 226.272 310C226.272 246.89 175.11 195.728 112 195.728Z" fill="url(#paint11_radial_545_40322)"/>
<path fill-rule="evenodd" clip-rule="evenodd" d="M112 186.606C43.8514 186.606 -11.394 241.851 -11.394 310C-11.394 378.149 43.8514 433.394 112 433.394C180.149 433.394 235.394 378.149 235.394 310C235.394 241.851 180.149 186.606 112 186.606ZM-9.47351 310C-9.47351 242.912 44.912 188.526 112 188.526C179.088 188.526 233.474 242.912 233.474 310C233.474 377.088 179.088 431.474 112 431.474C44.912 431.474 -9.47351 377.088 -9.47351 310Z" fill="url(#paint12_radial_545_40322)"/>
<path fill-rule="evenodd" clip-rule="evenodd" d="M-18.596 310C-18.596 237.874 39.8738 179.404 112 179.404C184.126 179.404 242.596 237.874 242.596 310C242.596 382.126 184.126 440.596 112 440.596C39.8738 440.596 -18.596 382.126 -18.596 310ZM112 181.325C40.9345 181.325 -16.6755 238.934 -16.6755 310C-16.6755 381.066 40.9345 438.676 112 438.676C183.066 438.676 240.675 381.066 240.675 310C240.675 238.934 183.066 181.325 112 181.325Z" fill="url(#paint13_radial_545_40322)"/>
<path fill-rule="evenodd" clip-rule="evenodd" d="M112 172.202C35.8963 172.202 -25.798 233.896 -25.798 310C-25.798 386.104 35.8963 447.798 112 447.798C188.104 447.798 249.798 386.104 249.798 310C249.798 233.896 188.104 172.202 112 172.202ZM-23.8775 310C-23.8775 234.957 36.9569 174.123 112 174.123C187.043 174.123 247.877 234.957 247.877 310C247.877 385.043 187.043 445.878 112 445.878C36.9569 445.878 -23.8775 385.043 -23.8775 310Z" fill="url(#paint14_radial_545_40322)"/>
<path fill-rule="evenodd" clip-rule="evenodd" d="M-33 310C-33 229.919 31.9187 165 112 165C192.081 165 257 229.919 257 310C257 390.081 192.081 455 112 455C31.9187 455 -33 390.081 -33 310ZM112 166.921C32.9794 166.921 -31.0795 230.979 -31.0795 310C-31.0795 389.021 32.9794 453.079 112 453.079C191.021 453.079 255.079 389.021 255.079 310C255.079 230.979 191.021 166.921 112 166.921Z" fill="url(#paint15_radial_545_40322)"/>
</g>
<defs>
<radialGradient id="paint0_radial_545_40322" cx="0" cy="0" r="1" gradientUnits="userSpaceOnUse" gradientTransform="translate(112 294.788) rotate(90) scale(509.091 525)">
<stop stop-color="#2B0A72"/>
<stop offset="1"/>
</radialGradient>
<radialGradient id="paint1_radial_545_40322" cx="0" cy="0" r="1" gradientUnits="userSpaceOnUse" gradientTransform="translate(112 310) rotate(90) scale(236.37)">
<stop stop-color="#7737FF"/>
<stop offset="1" stop-color="#7737FF" stop-opacity="0"/>
</radialGradient>
<radialGradient id="paint2_radial_545_40322" cx="0" cy="0" r="1" gradientUnits="userSpaceOnUse" gradientTransform="translate(112 310) rotate(90) scale(236.37)">
<stop stop-color="#7737FF"/>
<stop offset="1" stop-color="#7737FF" stop-opacity="0"/>
</radialGradient>
<radialGradient id="paint3_radial_545_40322" cx="0" cy="0" r="1" gradientUnits="userSpaceOnUse" gradientTransform="translate(112 310) rotate(90) scale(236.37)">
<stop stop-color="#7737FF"/>
<stop offset="1" stop-color="#7737FF" stop-opacity="0"/>
</radialGradient>
<radialGradient id="paint4_radial_545_40322" cx="0" cy="0" r="1" gradientUnits="userSpaceOnUse" gradientTransform="translate(112 310) rotate(90) scale(236.37)">
<stop stop-color="#7737FF"/>
<stop offset="1" stop-color="#7737FF" stop-opacity="0"/>
</radialGradient>
<radialGradient id="paint5_radial_545_40322" cx="0" cy="0" r="1" gradientUnits="userSpaceOnUse" gradientTransform="translate(112 310) rotate(90) scale(236.37)">
<stop stop-color="#7737FF"/>
<stop offset="1" stop-color="#7737FF" stop-opacity="0"/>
</radialGradient>
<radialGradient id="paint6_radial_545_40322" cx="0" cy="0" r="1" gradientUnits="userSpaceOnUse" gradientTransform="translate(112 310) rotate(90) scale(236.37)">
<stop stop-color="#7737FF"/>
<stop offset="1" stop-color="#7737FF" stop-opacity="0"/>
</radialGradient>
<radialGradient id="paint7_radial_545_40322" cx="0" cy="0" r="1" gradientUnits="userSpaceOnUse" gradientTransform="translate(112 310) rotate(90) scale(236.37)">
<stop stop-color="#7737FF"/>
<stop offset="1" stop-color="#7737FF" stop-opacity="0"/>
</radialGradient>
<radialGradient id="paint8_radial_545_40322" cx="0" cy="0" r="1" gradientUnits="userSpaceOnUse" gradientTransform="translate(112 310) rotate(90) scale(236.37)">
<stop stop-color="#7737FF"/>
<stop offset="1" stop-color="#7737FF" stop-opacity="0"/>
</radialGradient>
<radialGradient id="paint9_radial_545_40322" cx="0" cy="0" r="1" gradientUnits="userSpaceOnUse" gradientTransform="translate(112 310) rotate(90) scale(236.37)">
<stop stop-color="#7737FF"/>
<stop offset="1" stop-color="#7737FF" stop-opacity="0"/>
</radialGradient>
<radialGradient id="paint10_radial_545_40322" cx="0" cy="0" r="1" gradientUnits="userSpaceOnUse" gradientTransform="translate(112 310) rotate(90) scale(236.37)">
<stop stop-color="#7737FF"/>
<stop offset="1" stop-color="#7737FF" stop-opacity="0"/>
</radialGradient>
<radialGradient id="paint11_radial_545_40322" cx="0" cy="0" r="1" gradientUnits="userSpaceOnUse" gradientTransform="translate(112 310) rotate(90) scale(236.37)">
<stop stop-color="#7737FF"/>
<stop offset="1" stop-color="#7737FF" stop-opacity="0"/>
</radialGradient>
<radialGradient id="paint12_radial_545_40322" cx="0" cy="0" r="1" gradientUnits="userSpaceOnUse" gradientTransform="translate(112 310) rotate(90) scale(236.37)">
<stop stop-color="#7737FF"/>
<stop offset="1" stop-color="#7737FF" stop-opacity="0"/>
</radialGradient>
<radialGradient id="paint13_radial_545_40322" cx="0" cy="0" r="1" gradientUnits="userSpaceOnUse" gradientTransform="translate(112 310) rotate(90) scale(236.37)">
<stop stop-color="#7737FF"/>
<stop offset="1" stop-color="#7737FF" stop-opacity="0"/>
</radialGradient>
<radialGradient id="paint14_radial_545_40322" cx="0" cy="0" r="1" gradientUnits="userSpaceOnUse" gradientTransform="translate(112 310) rotate(90) scale(236.37)">
<stop stop-color="#7737FF"/>
<stop offset="1" stop-color="#7737FF" stop-opacity="0"/>
</radialGradient>
<radialGradient id="paint15_radial_545_40322" cx="0" cy="0" r="1" gradientUnits="userSpaceOnUse" gradientTransform="translate(112 310) rotate(90) scale(236.37)">
<stop stop-color="#7737FF"/>
<stop offset="1" stop-color="#7737FF" stop-opacity="0"/>
</radialGradient>
<clipPath id="clip0_545_40322">
<rect width="224" height="640" rx="24" fill="white"/>
</clipPath>
</defs>
</svg>
