<svg width="187" height="40" viewBox="0 0 187 40" fill="none" xmlns="http://www.w3.org/2000/svg">
<g clip-path="url(#clip0_602_13098)">
<path fill-rule="evenodd" clip-rule="evenodd" d="M20.2298 17.7012C16.6749 17.7012 13.793 20.5831 13.793 24.138C13.793 26.7212 15.3148 28.9538 17.5207 29.9792C18.3413 30.3607 19.2574 30.5748 20.2298 30.5748C21.2022 30.5748 22.1183 30.3607 22.9389 29.9792C23.7589 29.598 24.4874 29.0478 25.0782 28.372L28.5395 31.3982C27.8618 32.1734 27.0767 32.8534 26.2068 33.4148V40.23H21.6091V35.0869C21.1569 35.1434 20.6965 35.1725 20.2298 35.1725C19.7631 35.1725 19.3027 35.1434 18.8505 35.0869V40.23H14.2528V33.4146C11.2128 31.452 9.19531 28.0324 9.19531 24.138C9.19531 18.0438 14.1356 13.1035 20.2298 13.1035C23.5447 13.1035 26.5203 14.5681 28.5395 16.8778L25.0782 19.904C23.8948 18.5505 22.1629 17.7012 20.2298 17.7012Z" fill="#FFC107"/>
<path fill-rule="evenodd" clip-rule="evenodd" d="M20.2298 17.7012C16.6749 17.7012 13.793 20.5831 13.793 24.138C13.793 26.7212 15.3148 28.9538 17.5207 29.9792C18.3413 30.3607 19.2574 30.5748 20.2298 30.5748C21.2022 30.5748 22.1183 30.3607 22.9389 29.9792C23.7589 29.598 24.4874 29.0478 25.0782 28.372L28.5395 31.3982C27.8618 32.1734 27.0767 32.8534 26.2068 33.4148V40.23H21.6091V35.0869C21.1569 35.1434 20.6965 35.1725 20.2298 35.1725C19.7631 35.1725 19.3027 35.1434 18.8505 35.0869V40.23H14.2528V33.4146C11.2128 31.452 9.19531 28.0324 9.19531 24.138C9.19531 18.0438 14.1356 13.1035 20.2298 13.1035C23.5447 13.1035 26.5203 14.5681 28.5395 16.8778L25.0782 19.904C23.8948 18.5505 22.1629 17.7012 20.2298 17.7012Z" fill="url(#paint0_linear_602_13098)"/>
<path fill-rule="evenodd" clip-rule="evenodd" d="M14.2525 6.25526V0H18.8502V5.33715C19.3059 5.30414 19.7659 5.28736 20.2295 5.28736C20.6931 5.28736 21.1531 5.30414 21.6088 5.33715V0H26.2065V6.25527C29.2662 7.27747 31.9737 9.06125 34.1052 11.3781L30.7216 14.491C28.797 12.3991 26.2593 10.8873 23.3989 10.2382C22.3818 10.0074 21.3213 9.88506 20.2295 9.88506C19.1376 9.88506 18.0772 10.0074 17.06 10.2382C14.1004 10.9098 11.486 12.5052 9.53922 14.7109L6.09215 11.6685C8.26197 9.21007 11.0663 7.31973 14.2525 6.25526ZM5.97661 24.1379C5.97661 28.3057 7.76252 32.053 10.6179 34.6624L7.51627 38.0564C3.74789 34.6126 1.37891 29.6503 1.37891 24.1379H5.97661ZM30.7216 33.7848C33.0585 31.2447 34.4824 27.8602 34.4824 24.1379H39.0801C39.0801 29.058 37.1921 33.5424 34.1052 36.8977L30.7216 33.7848Z" fill="url(#paint1_radial_602_13098)"/>
<ellipse cx="19.9991" cy="24.1377" rx="3.44828" ry="3.44828" fill="#E23CB8"/>
</g>
<path d="M55.22 25.7002C53.8733 25.7002 52.6467 25.3869 51.54 24.7602C50.4333 24.1202 49.5667 23.2469 48.94 22.1402C48.3133 21.0202 48 19.7802 48 18.4202C48 16.3402 48.6867 14.6002 50.06 13.2002C51.4467 11.8002 53.1667 11.1002 55.22 11.1002C56.9267 11.1002 58.4 11.6135 59.64 12.6402C60.88 13.6669 61.6667 15.0135 62 16.6802H58.96C58.7733 16.1335 58.5 15.6602 58.14 15.2602C57.78 14.8469 57.3467 14.5335 56.84 14.3202C56.3467 14.0935 55.8067 13.9802 55.22 13.9802C54.0333 13.9802 53.04 14.4069 52.24 15.2602C51.4533 16.1002 51.06 17.1535 51.06 18.4202C51.06 19.6735 51.4533 20.7202 52.24 21.5602C53.04 22.4002 54.0333 22.8202 55.22 22.8202C56.14 22.8202 56.9333 22.5602 57.6 22.0402C58.2667 21.5202 58.7267 20.8135 58.98 19.9202H62.04C61.72 21.6535 60.9333 23.0535 59.68 24.1202C58.44 25.1735 56.9533 25.7002 55.22 25.7002Z" fill="#353535"/>
<path d="M69.5497 14.5402H70.5097V17.3002H69.2497C68.423 17.3002 67.8297 17.4935 67.4697 17.8802C67.123 18.2669 66.9497 18.9002 66.9497 19.7802V25.4002H64.0297V14.6002H65.9097L66.4297 15.9202C67.163 15.0002 68.203 14.5402 69.5497 14.5402Z" fill="#353535"/>
<path d="M79.6342 14.6002H82.7542L78.0342 25.2602C77.3676 26.7535 76.6876 27.8002 75.9942 28.4002C75.3009 29.0002 74.3609 29.3002 73.1742 29.3002H71.9742V26.6602H72.9942C73.6876 26.6602 74.1809 26.5335 74.4742 26.2802C74.7676 26.0269 75.0876 25.4869 75.4342 24.6602L75.4742 24.5802L70.8942 14.6002H74.0742L76.9542 21.2402L79.6342 14.6002Z" fill="#353535"/>
<path d="M90.1055 14.3002C91.7321 14.3002 93.0788 14.8402 94.1455 15.9202C95.2255 17.0002 95.7655 18.3602 95.7655 20.0002C95.7655 21.6402 95.2255 23.0069 94.1455 24.1002C93.0655 25.1802 91.7188 25.7202 90.1055 25.7202C88.9988 25.7202 88.0055 25.4202 87.1255 24.8202V29.3002H84.2055V14.6002H86.1455L86.6455 15.5802C87.6055 14.7269 88.7588 14.3002 90.1055 14.3002ZM87.7455 22.1202C88.3055 22.6802 89.0055 22.9602 89.8455 22.9602C90.6988 22.9602 91.4055 22.6802 91.9655 22.1202C92.5255 21.5602 92.8055 20.8535 92.8055 20.0002C92.8055 19.4402 92.6788 18.9335 92.4255 18.4802C92.1721 18.0269 91.8188 17.6735 91.3655 17.4202C90.9255 17.1669 90.4255 17.0402 89.8655 17.0402C89.3055 17.0402 88.7988 17.1669 88.3455 17.4202C87.8921 17.6735 87.5388 18.0269 87.2855 18.4802C87.0455 18.9335 86.9255 19.4402 86.9255 20.0002C86.9255 20.8535 87.1988 21.5602 87.7455 22.1202Z" fill="#353535"/>
<path d="M102.962 22.8002H104.282V25.4002H102.222C101.435 25.4002 100.749 25.2469 100.162 24.9402C99.5887 24.6335 99.1487 24.1935 98.842 23.6202C98.5354 23.0335 98.382 22.3402 98.382 21.5402V16.9402H96.422V16.3202L100.702 11.7802H101.242V14.6002H104.222V16.9402H101.302V21.1602C101.302 21.6802 101.442 22.0869 101.722 22.3802C102.015 22.6602 102.429 22.8002 102.962 22.8002Z" fill="#353535"/>
<path d="M111.318 25.7002C110.211 25.7002 109.211 25.4535 108.318 24.9602C107.425 24.4669 106.725 23.7869 106.218 22.9202C105.725 22.0402 105.478 21.0669 105.478 20.0002C105.478 18.3602 106.031 17.0002 107.138 15.9202C108.245 14.8402 109.638 14.3002 111.318 14.3002C112.985 14.3002 114.371 14.8402 115.478 15.9202C116.585 17.0002 117.138 18.3602 117.138 20.0002C117.138 21.6269 116.578 22.9869 115.458 24.0802C114.351 25.1602 112.971 25.7002 111.318 25.7002ZM111.318 22.9602C112.158 22.9602 112.845 22.6869 113.378 22.1402C113.911 21.5802 114.178 20.8669 114.178 20.0002C114.178 19.1335 113.911 18.4269 113.378 17.8802C112.845 17.3202 112.151 17.0402 111.298 17.0402C110.458 17.0402 109.771 17.3202 109.238 17.8802C108.705 18.4269 108.438 19.1335 108.438 20.0002C108.438 20.4269 108.505 20.8269 108.638 21.2002C108.785 21.5735 108.985 21.8869 109.238 22.1402C109.491 22.3935 109.791 22.5935 110.138 22.7402C110.498 22.8869 110.891 22.9602 111.318 22.9602Z" fill="#353535"/>
<path d="M124.368 22.8002H125.688V25.4002H123.628C122.842 25.4002 122.155 25.2469 121.568 24.9402C120.995 24.6335 120.555 24.1935 120.248 23.6202C119.942 23.0335 119.788 22.3402 119.788 21.5402V16.9402H117.828V16.3202L122.108 11.7802H122.648V14.6002H125.628V16.9402H122.708V21.1602C122.708 21.6802 122.848 22.0869 123.128 22.3802C123.422 22.6602 123.835 22.8002 124.368 22.8002Z" fill="#353535"/>
<path d="M133.202 14.5402H134.162V17.3002H132.902C132.075 17.3002 131.482 17.4935 131.122 17.8802C130.775 18.2669 130.602 18.9002 130.602 19.7802V25.4002H127.682V14.6002H129.562L130.082 15.9202C130.815 15.0002 131.855 14.5402 133.202 14.5402Z" fill="#353535"/>
<path d="M146.072 19.9602C146.072 20.2402 146.052 20.5269 146.012 20.8202H137.852C137.972 21.5535 138.259 22.1202 138.712 22.5202C139.179 22.9069 139.772 23.1002 140.492 23.1002C140.986 23.1002 141.432 22.9935 141.832 22.7802C142.232 22.5535 142.546 22.2469 142.772 21.8602H145.852C145.452 23.0335 144.772 23.9669 143.812 24.6602C142.852 25.3535 141.746 25.7002 140.492 25.7002C138.892 25.7002 137.559 25.1535 136.492 24.0602C135.426 22.9669 134.892 21.6135 134.892 20.0002C134.892 19.3602 134.979 18.7469 135.152 18.1602C135.339 17.5735 135.599 17.0469 135.932 16.5802C136.279 16.1135 136.679 15.7135 137.132 15.3802C137.586 15.0335 138.099 14.7669 138.672 14.5802C139.246 14.3935 139.852 14.3002 140.492 14.3002C141.572 14.3002 142.539 14.5535 143.392 15.0602C144.259 15.5669 144.919 16.2535 145.372 17.1202C145.839 17.9869 146.072 18.9335 146.072 19.9602ZM140.492 16.7802C139.839 16.7802 139.286 16.9602 138.832 17.3202C138.392 17.6802 138.092 18.1802 137.932 18.8202H143.152C143.019 18.3802 142.826 18.0135 142.572 17.7202C142.319 17.4135 142.012 17.1802 141.652 17.0202C141.306 16.8602 140.919 16.7802 140.492 16.7802Z" fill="#353535"/>
<path d="M154.311 14.3402C155.537 14.3402 156.504 14.7535 157.211 15.5802C157.931 16.3935 158.291 17.4869 158.291 18.8602V25.4002H155.371V19.3202C155.371 17.7069 154.744 16.9002 153.491 16.9002C152.997 16.9002 152.564 17.0135 152.191 17.2402C151.831 17.4669 151.551 17.7935 151.351 18.2202C151.164 18.6469 151.071 19.1469 151.071 19.7202V25.4002H148.151V14.6002H150.151L150.731 15.9402C150.931 15.6869 151.157 15.4669 151.411 15.2802C151.677 15.0802 151.964 14.9135 152.271 14.7802C152.577 14.6335 152.897 14.5269 153.231 14.4602C153.577 14.3802 153.937 14.3402 154.311 14.3402Z" fill="#353535"/>
<path d="M168.903 10.7002H171.823V25.4002H169.663L169.323 24.5002C168.363 25.3135 167.237 25.7202 165.943 25.7202C164.863 25.7202 163.89 25.4735 163.023 24.9802C162.157 24.4869 161.477 23.8069 160.983 22.9402C160.503 22.0602 160.263 21.0802 160.263 20.0002C160.263 18.9202 160.503 17.9469 160.983 17.0802C161.477 16.2135 162.157 15.5335 163.023 15.0402C163.89 14.5469 164.863 14.3002 165.943 14.3002C167.037 14.3002 168.023 14.5935 168.903 15.1802V10.7002ZM164.063 22.1202C164.623 22.6802 165.323 22.9602 166.163 22.9602C167.017 22.9602 167.723 22.6802 168.283 22.1202C168.843 21.5469 169.123 20.8402 169.123 20.0002C169.123 19.1469 168.843 18.4402 168.283 17.8802C167.723 17.3202 167.017 17.0402 166.163 17.0402C165.323 17.0402 164.623 17.3202 164.063 17.8802C163.503 18.4402 163.223 19.1469 163.223 20.0002C163.223 20.8535 163.503 21.5602 164.063 22.1202Z" fill="#353535"/>
<path d="M178.456 25.7002C177.562 25.7002 176.769 25.5402 176.076 25.2202C175.396 24.9002 174.862 24.4469 174.476 23.8602C174.102 23.2735 173.916 22.6002 173.916 21.8402H176.756C176.769 22.1602 176.849 22.4335 176.996 22.6602C177.156 22.8735 177.369 23.0335 177.636 23.1402C177.902 23.2335 178.209 23.2802 178.556 23.2802C178.836 23.2802 179.089 23.2402 179.316 23.1602C179.542 23.0802 179.729 22.9602 179.876 22.8002C180.022 22.6269 180.096 22.4269 180.096 22.2002C180.096 21.8669 179.922 21.6202 179.576 21.4602C179.229 21.3002 178.709 21.1602 178.016 21.0402C177.576 20.9735 177.209 20.9069 176.916 20.8402C176.636 20.7735 176.296 20.6602 175.896 20.5002C175.509 20.3269 175.196 20.1335 174.956 19.9202C174.729 19.7069 174.529 19.4135 174.356 19.0402C174.182 18.6669 174.096 18.2335 174.096 17.7402C174.096 16.7269 174.496 15.9002 175.296 15.2602C176.096 14.6202 177.142 14.3002 178.436 14.3002C179.742 14.3002 180.789 14.6335 181.576 15.3002C182.376 15.9535 182.776 16.8202 182.776 17.9002H179.996C179.996 17.0469 179.456 16.6202 178.376 16.6202C177.922 16.6202 177.569 16.7135 177.316 16.9002C177.062 17.0869 176.936 17.3402 176.936 17.6602C176.936 17.7935 176.969 17.9202 177.036 18.0402C177.116 18.1469 177.202 18.2335 177.296 18.3002C177.402 18.3669 177.562 18.4335 177.776 18.5002C177.989 18.5535 178.169 18.5935 178.316 18.6202C178.462 18.6469 178.682 18.6869 178.976 18.7402C179.229 18.7935 179.409 18.8335 179.516 18.8602C179.622 18.8735 179.802 18.9069 180.056 18.9602C180.309 19.0135 180.496 19.0669 180.616 19.1202C180.749 19.1602 180.922 19.2202 181.136 19.3002C181.362 19.3802 181.529 19.4669 181.636 19.5602C181.756 19.6402 181.896 19.7402 182.056 19.8602C182.229 19.9802 182.362 20.1135 182.456 20.2602C182.549 20.4069 182.642 20.5669 182.736 20.7402C182.829 20.9135 182.889 21.1135 182.916 21.3402C182.956 21.5669 182.976 21.8069 182.976 22.0602C182.976 23.1669 182.562 24.0535 181.736 24.7202C180.909 25.3735 179.816 25.7002 178.456 25.7002Z" fill="#353535"/>
<defs>
<linearGradient id="paint0_linear_602_13098" x1="13.5631" y1="9.42535" x2="46.0802" y2="34.0626" gradientUnits="userSpaceOnUse">
<stop stop-color="#7657FF"/>
<stop offset="1" stop-color="#F638AC"/>
</linearGradient>
<radialGradient id="paint1_radial_602_13098" cx="0" cy="0" r="1" gradientUnits="userSpaceOnUse" gradientTransform="translate(9.42488 12.4138) rotate(57.6119) scale(36.4794 36.1389)">
<stop stop-color="#7657FF"/>
<stop offset="1" stop-color="#F638AC"/>
</radialGradient>
<clipPath id="clip0_602_13098">
<rect width="40" height="40" fill="white"/>
</clipPath>
</defs>
</svg>
