<svg width="367" height="79" viewBox="0 0 367 79" fill="none" xmlns="http://www.w3.org/2000/svg">
<g clip-path="url(#clip0_602_10389)">
<path fill-rule="evenodd" clip-rule="evenodd" d="M39.7076 34.9594C32.7299 34.9594 27.0733 40.651 27.0733 47.672C27.0733 52.7739 30.0602 57.1832 34.3901 59.2084C36.0007 59.9618 37.7989 60.3847 39.7076 60.3847C41.6163 60.3847 43.4144 59.9618 45.0251 59.2084C46.6346 58.4556 48.0645 57.3688 49.224 56.0342L56.0181 62.0109C54.6878 63.542 53.1469 64.8849 51.4394 65.9936V79.4536H42.4149V69.296C41.5272 69.4077 40.6236 69.4651 39.7076 69.4651C38.7916 69.4651 37.8879 69.4077 37.0002 69.296V79.4536H27.9757V65.9933C22.0087 62.1171 18.0488 55.3634 18.0488 47.672C18.0488 35.636 27.7458 25.8789 39.7076 25.8789C46.2141 25.8789 52.0546 28.7715 56.0181 33.3331L49.224 39.3098C46.9014 36.6366 43.5018 34.9594 39.7076 34.9594Z" fill="#FFC107"/>
<path fill-rule="evenodd" clip-rule="evenodd" d="M39.7076 34.9594C32.7299 34.9594 27.0733 40.651 27.0733 47.672C27.0733 52.7739 30.0602 57.1832 34.3901 59.2084C36.0007 59.9618 37.7989 60.3847 39.7076 60.3847C41.6163 60.3847 43.4144 59.9618 45.0251 59.2084C46.6346 58.4556 48.0645 57.3688 49.224 56.0342L56.0181 62.0109C54.6878 63.542 53.1469 64.8849 51.4394 65.9936V79.4536H42.4149V69.296C41.5272 69.4077 40.6236 69.4651 39.7076 69.4651C38.7916 69.4651 37.8879 69.4077 37.0002 69.296V79.4536H27.9757V65.9933C22.0087 62.1171 18.0488 55.3634 18.0488 47.672C18.0488 35.636 27.7458 25.8789 39.7076 25.8789C46.2141 25.8789 52.0546 28.7715 56.0181 33.3331L49.224 39.3098C46.9014 36.6366 43.5018 34.9594 39.7076 34.9594Z" fill="url(#paint0_linear_602_10389)"/>
<path fill-rule="evenodd" clip-rule="evenodd" d="M27.9756 12.3541V0H37V10.5409C37.8946 10.4757 38.7974 10.4425 39.7074 10.4425C40.6173 10.4425 41.5202 10.4757 42.4147 10.5409V0H51.4392V12.3542C57.4448 14.373 62.7591 17.896 66.9429 22.4718L60.3015 28.6198C56.5239 24.4882 51.5428 21.5023 45.9284 20.2205C43.9319 19.7646 41.8504 19.523 39.7074 19.523C37.5643 19.523 35.4828 19.7646 33.4863 20.2205C27.677 21.5468 22.5456 24.6977 18.7243 29.0541L11.9583 23.0452C16.2173 18.1899 21.7216 14.4565 27.9756 12.3541ZM11.7315 47.6724C11.7315 55.9037 15.2369 63.3047 20.8415 68.4582L14.7536 75.1613C7.35693 68.3599 2.70703 58.5593 2.70703 47.6724H11.7315ZM60.3015 66.725C64.8884 61.7083 67.6832 55.0239 67.6832 47.6724H76.7077C76.7077 57.3896 73.002 66.2462 66.9429 72.873L60.3015 66.725Z" fill="url(#paint1_radial_602_10389)"/>
<ellipse cx="39.2566" cy="47.6726" rx="6.76836" ry="6.81034" fill="#E23CB8"/>
</g>
<path d="M108.386 50.7578C105.743 50.7578 103.335 50.139 101.163 48.9013C98.991 47.6373 97.2899 45.9125 96.0599 43.7268C94.8299 41.5148 94.2148 39.0658 94.2148 36.3798C94.2148 32.2718 95.5626 28.8353 98.2583 26.0703C100.98 23.3053 104.356 21.9228 108.386 21.9228C111.736 21.9228 114.628 22.9366 117.062 24.9643C119.496 26.992 121.04 29.6516 121.694 32.9433H115.727C115.361 31.8636 114.824 30.9288 114.118 30.1388C113.411 29.3225 112.561 28.7036 111.566 28.2823C110.598 27.8346 109.538 27.6108 108.386 27.6108C106.057 27.6108 104.107 28.4535 102.537 30.1388C100.993 31.7978 100.221 33.8781 100.221 36.3798C100.221 38.8551 100.993 40.9223 102.537 42.5813C104.107 44.2403 106.057 45.0698 108.386 45.0698C110.192 45.0698 111.749 44.5563 113.058 43.5293C114.366 42.5023 115.269 41.1066 115.767 39.3423H121.773C121.145 42.7656 119.601 45.5306 117.141 47.6373C114.707 49.7176 111.789 50.7578 108.386 50.7578Z" fill="#353535"/>
<path d="M136.513 28.7168H138.397V34.1678H135.924C134.302 34.1678 133.137 34.5496 132.43 35.3133C131.75 36.077 131.41 37.3278 131.41 39.0658V50.1653H125.678V28.8353H129.368L130.389 31.4423C131.828 29.6253 133.87 28.7168 136.513 28.7168Z" fill="#353535"/>
<path d="M156.307 28.8353H162.431L153.167 49.8888C151.858 52.8381 150.523 54.9053 149.163 56.0903C147.802 57.2753 145.957 57.8678 143.627 57.8678H141.272V52.6538H143.274C144.635 52.6538 145.603 52.4036 146.179 51.9033C146.755 51.403 147.383 50.3365 148.063 48.7038L148.142 48.5458L139.152 28.8353H145.394L151.047 41.9493L156.307 28.8353Z" fill="#353535"/>
<path d="M176.86 28.2428C180.053 28.2428 182.697 29.3093 184.79 31.4423C186.91 33.5753 187.97 36.2613 187.97 39.5003C187.97 42.7393 186.91 45.4385 184.79 47.5978C182.67 49.7308 180.027 50.7973 176.86 50.7973C174.688 50.7973 172.738 50.2048 171.011 49.0198V57.8678H165.28V28.8353H169.088L170.069 30.7708C171.953 29.0855 174.217 28.2428 176.86 28.2428ZM172.228 43.6873C173.327 44.7933 174.701 45.3463 176.35 45.3463C178.025 45.3463 179.412 44.7933 180.511 43.6873C181.61 42.5813 182.16 41.1856 182.16 39.5003C182.16 38.3943 181.911 37.3936 181.414 36.4983C180.917 35.603 180.223 34.9051 179.334 34.4048C178.47 33.9045 177.489 33.6543 176.389 33.6543C175.29 33.6543 174.296 33.9045 173.406 34.4048C172.516 34.9051 171.823 35.603 171.325 36.4983C170.854 37.3936 170.619 38.3943 170.619 39.5003C170.619 41.1856 171.155 42.5813 172.228 43.6873Z" fill="#353535"/>
<path d="M202.096 45.0303H204.687V50.1653H200.643C199.099 50.1653 197.751 49.8625 196.6 49.2568C195.474 48.6511 194.611 47.7821 194.009 46.6498C193.407 45.4911 193.106 44.1218 193.106 42.5418V33.4568H189.259V32.2323L197.66 23.2658H198.72V28.8353H204.569V33.4568H198.837V41.7913C198.837 42.8183 199.112 43.6215 199.662 44.2008C200.237 44.7538 201.049 45.0303 202.096 45.0303Z" fill="#353535"/>
<path d="M218.497 50.7578C216.325 50.7578 214.362 50.2706 212.609 49.2963C210.855 48.322 209.481 46.979 208.487 45.2673C207.518 43.5293 207.034 41.607 207.034 39.5003C207.034 36.2613 208.12 33.5753 210.293 31.4423C212.465 29.3093 215.2 28.2428 218.497 28.2428C221.768 28.2428 224.49 29.3093 226.662 31.4423C228.835 33.5753 229.921 36.2613 229.921 39.5003C229.921 42.713 228.822 45.399 226.623 47.5583C224.451 49.6913 221.742 50.7578 218.497 50.7578ZM218.497 45.3463C220.146 45.3463 221.494 44.8065 222.541 43.7268C223.587 42.6208 224.111 41.212 224.111 39.5003C224.111 37.7886 223.587 36.393 222.541 35.3133C221.494 34.2073 220.133 33.6543 218.458 33.6543C216.809 33.6543 215.461 34.2073 214.414 35.3133C213.368 36.393 212.844 37.7886 212.844 39.5003C212.844 40.343 212.975 41.133 213.237 41.8703C213.525 42.6076 213.917 43.2265 214.414 43.7268C214.912 44.2271 215.501 44.6221 216.181 44.9118C216.888 45.2015 217.66 45.3463 218.497 45.3463Z" fill="#353535"/>
<path d="M244.112 45.0303H246.703V50.1653H242.66C241.116 50.1653 239.768 49.8625 238.616 49.2568C237.491 48.6511 236.627 47.7821 236.025 46.6498C235.423 45.4911 235.123 44.1218 235.123 42.5418V33.4568H231.275V32.2323L239.676 23.2658H240.736V28.8353H246.585V33.4568H240.854V41.7913C240.854 42.8183 241.129 43.6215 241.678 44.2008C242.254 44.7538 243.065 45.0303 244.112 45.0303Z" fill="#353535"/>
<path d="M261.451 28.7168H263.336V34.1678H260.863C259.24 34.1678 258.075 34.5496 257.369 35.3133C256.688 36.077 256.348 37.3278 256.348 39.0658V50.1653H250.617V28.8353H254.307L255.327 31.4423C256.767 29.6253 258.808 28.7168 261.451 28.7168Z" fill="#353535"/>
<path d="M286.713 39.4213C286.713 39.9743 286.674 40.5405 286.595 41.1198H270.579C270.814 42.5681 271.377 43.6873 272.267 44.4773C273.183 45.241 274.347 45.6228 275.761 45.6228C276.729 45.6228 277.606 45.4121 278.391 44.9908C279.176 44.5431 279.791 43.9375 280.236 43.1738H286.281C285.496 45.4911 284.162 47.3345 282.277 48.7038C280.393 50.0731 278.221 50.7578 275.761 50.7578C272.62 50.7578 270.003 49.6781 267.909 47.5188C265.816 45.3595 264.769 42.6866 264.769 39.5003C264.769 38.2363 264.939 37.025 265.279 35.8663C265.646 34.7076 266.156 33.6675 266.81 32.7458C267.491 31.8241 268.276 31.0341 269.166 30.3758C270.055 29.6911 271.063 29.1645 272.188 28.7958C273.314 28.4271 274.504 28.2428 275.761 28.2428C277.88 28.2428 279.778 28.7431 281.453 29.7438C283.154 30.7445 284.449 32.1006 285.339 33.8123C286.255 35.524 286.713 37.3936 286.713 39.4213ZM275.761 33.1408C274.478 33.1408 273.392 33.4963 272.502 34.2073C271.639 34.9183 271.05 35.9058 270.736 37.1698H280.982C280.72 36.3008 280.341 35.5766 279.843 34.9973C279.346 34.3916 278.744 33.9308 278.037 33.6148C277.357 33.2988 276.598 33.1408 275.761 33.1408Z" fill="#353535"/>
<path d="M302.884 28.3218C305.292 28.3218 307.189 29.1381 308.576 30.7708C309.989 32.3771 310.696 34.5365 310.696 37.2488V50.1653H304.965V38.1573C304.965 34.971 303.735 33.3778 301.275 33.3778C300.306 33.3778 299.456 33.6016 298.723 34.0493C298.016 34.497 297.467 35.1421 297.074 35.9848C296.708 36.8275 296.525 37.815 296.525 38.9473V50.1653H290.793V28.8353H294.719L295.857 31.4818C296.25 30.9815 296.695 30.547 297.192 30.1783C297.715 29.7833 298.278 29.4541 298.88 29.1908C299.482 28.9011 300.11 28.6905 300.764 28.5588C301.445 28.4008 302.151 28.3218 302.884 28.3218Z" fill="#353535"/>
<path d="M331.527 21.1328H337.258V50.1653H333.018L332.351 48.3878C330.467 49.9941 328.255 50.7973 325.717 50.7973C323.597 50.7973 321.686 50.3101 319.985 49.3358C318.284 48.3615 316.949 47.0185 315.981 45.3068C315.039 43.5688 314.568 41.6333 314.568 39.5003C314.568 37.3673 315.039 35.445 315.981 33.7333C316.949 32.0216 318.284 30.6786 319.985 29.7043C321.686 28.73 323.597 28.2428 325.717 28.2428C327.863 28.2428 329.799 28.8221 331.527 29.9808V21.1328ZM322.027 43.6873C323.126 44.7933 324.5 45.3463 326.148 45.3463C327.823 45.3463 329.21 44.7933 330.31 43.6873C331.409 42.555 331.958 41.1593 331.958 39.5003C331.958 37.815 331.409 36.4193 330.31 35.3133C329.21 34.2073 327.823 33.6543 326.148 33.6543C324.5 33.6543 323.126 34.2073 322.027 35.3133C320.927 36.4193 320.378 37.815 320.378 39.5003C320.378 41.1856 320.927 42.5813 322.027 43.6873Z" fill="#353535"/>
<path d="M350.276 50.7578C348.523 50.7578 346.965 50.4418 345.605 49.8098C344.27 49.1778 343.223 48.2825 342.464 47.1238C341.731 45.9651 341.365 44.6353 341.365 43.1343H346.939C346.965 43.7663 347.123 44.3061 347.41 44.7538C347.724 45.1751 348.143 45.4911 348.667 45.7018C349.19 45.8861 349.792 45.9783 350.472 45.9783C351.022 45.9783 351.519 45.8993 351.964 45.7413C352.409 45.5833 352.775 45.3463 353.063 45.0303C353.351 44.688 353.495 44.293 353.495 43.8453C353.495 43.187 353.155 42.6998 352.474 42.3838C351.794 42.0678 350.773 41.7913 349.412 41.5543C348.549 41.4226 347.829 41.291 347.253 41.1593C346.704 41.0276 346.036 40.8038 345.251 40.4878C344.492 40.1455 343.877 39.7636 343.406 39.3423C342.961 38.921 342.569 38.3416 342.229 37.6043C341.888 36.867 341.718 36.0111 341.718 35.0368C341.718 33.0355 342.503 31.4028 344.074 30.1388C345.644 28.8748 347.698 28.2428 350.237 28.2428C352.802 28.2428 354.856 28.9011 356.4 30.2178C357.97 31.5081 358.756 33.2198 358.756 35.3528H353.299C353.299 33.6675 352.239 32.8248 350.119 32.8248C349.229 32.8248 348.536 33.0091 348.039 33.3778C347.541 33.7465 347.293 34.2468 347.293 34.8788C347.293 35.1421 347.358 35.3923 347.489 35.6293C347.646 35.84 347.816 36.0111 347.999 36.1428C348.209 36.2745 348.523 36.4061 348.941 36.5378C349.36 36.6431 349.713 36.7221 350.001 36.7748C350.289 36.8275 350.721 36.9065 351.297 37.0118C351.794 37.1171 352.147 37.1961 352.357 37.2488C352.566 37.2751 352.919 37.341 353.417 37.4463C353.914 37.5516 354.28 37.657 354.516 37.7623C354.778 37.8413 355.118 37.9598 355.536 38.1178C355.981 38.2758 356.309 38.447 356.518 38.6313C356.753 38.7893 357.028 38.9868 357.342 39.2238C357.682 39.4608 357.944 39.7241 358.127 40.0138C358.311 40.3035 358.494 40.6195 358.677 40.9618C358.86 41.3041 358.978 41.6991 359.03 42.1468C359.109 42.5945 359.148 43.0685 359.148 43.5688C359.148 45.7545 358.337 47.5056 356.714 48.8223C355.092 50.1126 352.946 50.7578 350.276 50.7578Z" fill="#353535"/>
<defs>
<linearGradient id="paint0_linear_602_10389" x1="26.6221" y1="18.6145" x2="90.7348" y2="66.8915" gradientUnits="userSpaceOnUse">
<stop stop-color="#7657FF"/>
<stop offset="1" stop-color="#F638AC"/>
</linearGradient>
<radialGradient id="paint1_radial_602_10389" cx="0" cy="0" r="1" gradientUnits="userSpaceOnUse" gradientTransform="translate(18.4999 24.5172) rotate(57.772) scale(71.9196 71.0596)">
<stop stop-color="#7657FF"/>
<stop offset="1" stop-color="#F638AC"/>
</radialGradient>
<clipPath id="clip0_602_10389">
<rect width="78.5129" height="79" fill="white"/>
</clipPath>
</defs>
</svg>
