<svg width="34" height="34" viewBox="0 0 34 34" fill="none" xmlns="http://www.w3.org/2000/svg">
<path d="M17 33C25.8366 33 33 25.8366 33 17C33 8.16344 25.8366 1 17 1C8.16344 1 1 8.16344 1 17C1 25.8366 8.16344 33 17 33Z" fill="black"/>
<path d="M17 33C25.8366 33 33 25.8366 33 17C33 8.16344 25.8366 1 17 1C8.16344 1 1 8.16344 1 17C1 25.8366 8.16344 33 17 33Z" fill="#0D1E30"/>
<path style="mix-blend-mode:soft-light" d="M17 33C25.8366 33 33 25.8366 33 17C33 8.16344 25.8366 1 17 1C8.16344 1 1 8.16344 1 17C1 25.8366 8.16344 33 17 33Z" fill="url(#paint0_linear_621_7450)"/>
<path d="M16.9999 32.4665C25.5419 32.4665 32.4665 25.5419 32.4665 16.9999C32.4665 8.45787 25.5419 1.5332 16.9999 1.5332C8.45787 1.5332 1.5332 8.45787 1.5332 16.9999C1.5332 25.5419 8.45787 32.4665 16.9999 32.4665Z" stroke="black" stroke-opacity="0.097" stroke-width="2.352"/>
<g filter="url(#filter0_d_621_7450)">
<path d="M16.7071 6.39754C17.218 6.13407 17.842 6.74314 17.5711 7.24554C17.4122 7.65514 16.8138 7.76394 16.5087 7.45141C16.1855 7.15274 16.2911 6.55967 16.7071 6.39647V6.39754ZM11.2084 6.97994C11.5188 6.85407 11.9124 7.13354 11.8804 7.46741C11.9124 7.82794 11.4644 8.09461 11.1476 7.92287C10.7284 7.76287 10.7764 7.09301 11.2084 6.97994V6.97994ZM22.4703 7.93247C21.985 7.87487 21.9082 7.12394 22.3743 6.97247C22.737 6.79967 23.0698 7.12501 23.1231 7.46314C23.0463 7.75114 22.801 8.01567 22.4703 7.93247V7.93247ZM12.4596 9.28181C12.9791 8.95861 13.7194 9.43967 13.6394 10.0338C13.6127 10.6322 12.8042 10.9799 12.3476 10.5746C11.906 10.2567 11.9732 9.52714 12.4596 9.28181ZM20.385 9.62527C20.6164 9.03861 21.5551 9.01941 21.8186 9.59114C22.0799 10.0359 21.7588 10.5874 21.2948 10.7389C20.6794 10.8519 20.0959 10.197 20.385 9.62527ZM16.0447 10.7058C16.0394 10.2002 16.5066 9.82474 16.994 9.78954C17.3183 9.85354 17.6703 9.98901 17.809 10.3101C18.0682 10.7538 17.8378 11.3629 17.3716 11.5666C17.1583 11.6839 16.9044 11.6402 16.6719 11.6263C16.3167 11.4557 16.017 11.1175 16.0447 10.7058ZM7.86764 11.4418C8.3423 11.1538 8.9823 11.6765 8.80204 12.1842C8.7039 12.6226 8.10444 12.8007 7.76204 12.5213C7.39617 12.2589 7.45377 11.6285 7.8687 11.4407L7.86764 11.4418ZM25.4271 11.4386C25.8292 11.1314 26.4938 11.4845 26.4447 11.9837C26.4724 12.4391 25.8975 12.7837 25.4986 12.549C25.0591 12.3538 25.0132 11.6882 25.4271 11.4397V11.4386ZM18.3444 12.3463C19.0079 12.1117 19.7972 12.3922 20.1748 12.9757C20.674 13.6871 20.4095 14.7709 19.634 15.1794C18.8319 15.6626 17.6596 15.2541 17.362 14.3709C17.026 13.5815 17.5167 12.5938 18.3434 12.3463H18.3444ZM14.4479 12.4242C15.1839 12.0829 16.1748 12.3687 16.53 13.109C16.9482 13.8301 16.625 14.8338 15.8772 15.2061C15.1284 15.6253 14.0714 15.3074 13.7098 14.5341C13.3034 13.7853 13.6639 12.7687 14.4479 12.4242V12.4242ZM10.5471 13.7362C10.6036 13.2701 11.0506 12.9661 11.5018 12.9341C11.7371 12.9589 11.957 13.0629 12.1256 13.2289C12.2941 13.395 12.4014 13.6133 12.4298 13.8482C12.3978 14.3282 12.0212 14.7954 11.505 14.7933C10.9364 14.8413 10.4383 14.2845 10.5471 13.7362V13.7362ZM22.0692 13.0365C22.6527 12.7026 23.4623 13.1879 23.4367 13.8471C23.4762 14.5458 22.5802 15.0375 21.9999 14.6279C21.3962 14.2866 21.4431 13.3266 22.0692 13.0365ZM12.8639 15.4973C13.5444 15.3127 14.3252 15.6285 14.6591 16.245C15.025 16.8658 14.8756 17.7277 14.3071 18.1842C13.5764 18.8519 12.2314 18.5831 11.8431 17.6722C11.3962 16.837 11.9391 15.717 12.8628 15.4962L12.8639 15.4973ZM20.2527 15.4941C20.9151 15.3074 21.6938 15.5581 22.05 16.1522C22.5215 16.8317 22.2964 17.8461 21.5956 18.2834C20.8596 18.7922 19.7226 18.5255 19.3172 17.7298C18.8266 16.9074 19.3204 15.7447 20.2527 15.4941ZM8.4767 16.2685C9.0655 16.0498 9.7183 16.6887 9.47937 17.2637C9.3343 17.7863 8.58444 17.9805 8.19724 17.5943C7.7439 17.2317 7.91137 16.4263 8.4767 16.2685ZM24.4436 17.1026C24.4326 16.8678 24.5147 16.6381 24.6721 16.4635C24.8295 16.2889 25.0495 16.1836 25.2842 16.1703C25.6874 16.2343 26.0799 16.5543 26.0479 16.9863C26.0852 17.557 25.3866 17.9442 24.8916 17.6765C24.6602 17.5602 24.5418 17.3266 24.4436 17.1026ZM5.5807 16.5522C5.93484 16.3997 6.37324 16.7015 6.29217 17.0887C6.27297 17.5271 5.61484 17.6967 5.37377 17.3298C5.16044 17.0749 5.28844 16.6834 5.5807 16.5511V16.5522ZM27.9263 16.5426C28.1759 16.3687 28.577 16.4935 28.6751 16.7805C28.8426 17.0941 28.5354 17.5229 28.177 17.4706C27.6735 17.5154 27.5114 16.7613 27.9263 16.5426V16.5426ZM14.7882 18.6471C15.7204 18.4093 16.7231 19.1741 16.7295 20.1191C16.7892 21.0738 15.8015 21.9197 14.8479 21.6999C14.1098 21.5826 13.5306 20.8829 13.5551 20.1501C13.553 19.4482 14.0906 18.7954 14.7882 18.6471V18.6471ZM18.481 18.6461C19.4271 18.3858 20.4596 19.1645 20.4447 20.1309C20.4948 21.0674 19.538 21.8855 18.6036 21.6989C17.7236 21.5879 17.0751 20.6375 17.3204 19.797C17.4442 19.2381 17.9199 18.7837 18.481 18.645V18.6461ZM11.3599 19.2274C12.0148 19.1175 12.6292 19.8354 12.3636 20.4477C12.1695 21.1005 11.2052 21.2765 10.7786 20.7442C10.2794 20.2322 10.6527 19.2978 11.3599 19.2274V19.2274ZM22.1908 19.2562C22.7754 19.0151 23.4922 19.5122 23.4474 20.1362C23.4708 20.8221 22.5855 21.2957 22.0148 20.8946C21.3674 20.5351 21.4858 19.4759 22.1908 19.2562V19.2562ZM25.218 22.2429C24.9898 21.8237 25.4047 21.2679 25.8794 21.3458C26.114 21.3415 26.2794 21.5239 26.4298 21.6775C26.4607 21.9261 26.513 22.2226 26.3028 22.4135C26.018 22.7687 25.3727 22.6674 25.218 22.2429V22.2429ZM7.8655 21.4621C8.30817 21.173 8.94497 21.605 8.8447 22.1127C8.79137 22.5639 8.21537 22.821 7.8367 22.565C7.42924 22.3335 7.44417 21.6733 7.8655 21.4621V21.4621ZM16.6047 22.4039C17.1839 22.1533 17.922 22.6493 17.8666 23.2765C17.9092 23.9698 16.9972 24.4498 16.4308 24.0338C15.8015 23.6765 15.9071 22.6247 16.6047 22.4039V22.4039ZM12.5578 23.333C13.0506 23.0781 13.7119 23.5186 13.6671 24.0626C13.682 24.5085 13.2404 24.8882 12.7924 24.8221C12.4223 24.8146 12.1812 24.4871 12.0618 24.1767C12.0682 23.8386 12.21 23.4621 12.5578 23.3341V23.333ZM20.7562 23.3415C21.2639 23.0322 21.985 23.4759 21.937 24.0562C21.9498 24.6642 21.1348 25.0525 20.6623 24.6535C20.2058 24.341 20.2612 23.5901 20.7562 23.3415ZM22.1823 26.8082C21.9562 26.4733 22.2218 26.069 22.5876 25.9922C22.8831 26.0509 23.1956 26.2695 23.1327 26.6045C23.09 27.0599 22.4138 27.1986 22.1823 26.8093V26.8082ZM10.8639 26.517C10.9535 26.2503 11.1711 25.9869 11.49 26.0562C11.954 26.0882 12.0916 26.7773 11.6852 26.9895C11.3204 27.2317 10.8959 26.8999 10.8639 26.517ZM16.3252 26.8231C16.4138 26.4285 16.9311 26.2375 17.2724 26.4466C17.4986 26.5426 17.5647 26.7901 17.6223 27.0013C17.5919 27.111 17.5634 27.2212 17.537 27.3319C17.3972 27.4941 17.217 27.6573 16.9844 27.6519C16.5524 27.7021 16.162 27.221 16.3242 26.8231H16.3252Z" fill="black"/>
</g>
<path d="M16.7071 6.39754C17.218 6.13407 17.842 6.74314 17.5711 7.24554C17.4122 7.65514 16.8138 7.76394 16.5087 7.45141C16.1855 7.15274 16.2911 6.55967 16.7071 6.39647V6.39754ZM11.2084 6.97994C11.5188 6.85407 11.9124 7.13354 11.8804 7.46741C11.9124 7.82794 11.4644 8.09461 11.1476 7.92287C10.7284 7.76287 10.7764 7.09301 11.2084 6.97994V6.97994ZM22.4703 7.93247C21.985 7.87487 21.9082 7.12394 22.3743 6.97247C22.737 6.79967 23.0698 7.12501 23.1231 7.46314C23.0463 7.75114 22.801 8.01567 22.4703 7.93247V7.93247ZM12.4596 9.28181C12.9791 8.95861 13.7194 9.43967 13.6394 10.0338C13.6127 10.6322 12.8042 10.9799 12.3476 10.5746C11.906 10.2567 11.9732 9.52714 12.4596 9.28181ZM20.385 9.62527C20.6164 9.03861 21.5551 9.01941 21.8186 9.59114C22.0799 10.0359 21.7588 10.5874 21.2948 10.7389C20.6794 10.8519 20.0959 10.197 20.385 9.62527ZM16.0447 10.7058C16.0394 10.2002 16.5066 9.82474 16.994 9.78954C17.3183 9.85354 17.6703 9.98901 17.809 10.3101C18.0682 10.7538 17.8378 11.3629 17.3716 11.5666C17.1583 11.6839 16.9044 11.6402 16.6719 11.6263C16.3167 11.4557 16.017 11.1175 16.0447 10.7058ZM7.86764 11.4418C8.3423 11.1538 8.9823 11.6765 8.80204 12.1842C8.7039 12.6226 8.10444 12.8007 7.76204 12.5213C7.39617 12.2589 7.45377 11.6285 7.8687 11.4407L7.86764 11.4418ZM25.4271 11.4386C25.8292 11.1314 26.4938 11.4845 26.4447 11.9837C26.4724 12.4391 25.8975 12.7837 25.4986 12.549C25.0591 12.3538 25.0132 11.6882 25.4271 11.4397V11.4386ZM18.3444 12.3463C19.0079 12.1117 19.7972 12.3922 20.1748 12.9757C20.674 13.6871 20.4095 14.7709 19.634 15.1794C18.8319 15.6626 17.6596 15.2541 17.362 14.3709C17.026 13.5815 17.5167 12.5938 18.3434 12.3463H18.3444ZM14.4479 12.4242C15.1839 12.0829 16.1748 12.3687 16.53 13.109C16.9482 13.8301 16.625 14.8338 15.8772 15.2061C15.1284 15.6253 14.0714 15.3074 13.7098 14.5341C13.3034 13.7853 13.6639 12.7687 14.4479 12.4242V12.4242ZM10.5471 13.7362C10.6036 13.2701 11.0506 12.9661 11.5018 12.9341C11.7371 12.9589 11.957 13.0629 12.1256 13.2289C12.2941 13.395 12.4014 13.6133 12.4298 13.8482C12.3978 14.3282 12.0212 14.7954 11.505 14.7933C10.9364 14.8413 10.4383 14.2845 10.5471 13.7362V13.7362ZM22.0692 13.0365C22.6527 12.7026 23.4623 13.1879 23.4367 13.8471C23.4762 14.5458 22.5802 15.0375 21.9999 14.6279C21.3962 14.2866 21.4431 13.3266 22.0692 13.0365ZM12.8639 15.4973C13.5444 15.3127 14.3252 15.6285 14.6591 16.245C15.025 16.8658 14.8756 17.7277 14.3071 18.1842C13.5764 18.8519 12.2314 18.5831 11.8431 17.6722C11.3962 16.837 11.9391 15.717 12.8628 15.4962L12.8639 15.4973ZM20.2527 15.4941C20.9151 15.3074 21.6938 15.5581 22.05 16.1522C22.5215 16.8317 22.2964 17.8461 21.5956 18.2834C20.8596 18.7922 19.7226 18.5255 19.3172 17.7298C18.8266 16.9074 19.3204 15.7447 20.2527 15.4941ZM8.4767 16.2685C9.0655 16.0498 9.7183 16.6887 9.47937 17.2637C9.3343 17.7863 8.58444 17.9805 8.19724 17.5943C7.7439 17.2317 7.91137 16.4263 8.4767 16.2685ZM24.4436 17.1026C24.4326 16.8678 24.5147 16.6381 24.6721 16.4635C24.8295 16.2889 25.0495 16.1836 25.2842 16.1703C25.6874 16.2343 26.0799 16.5543 26.0479 16.9863C26.0852 17.557 25.3866 17.9442 24.8916 17.6765C24.6602 17.5602 24.5418 17.3266 24.4436 17.1026ZM5.5807 16.5522C5.93484 16.3997 6.37324 16.7015 6.29217 17.0887C6.27297 17.5271 5.61484 17.6967 5.37377 17.3298C5.16044 17.0749 5.28844 16.6834 5.5807 16.5511V16.5522ZM27.9263 16.5426C28.1759 16.3687 28.577 16.4935 28.6751 16.7805C28.8426 17.0941 28.5354 17.5229 28.177 17.4706C27.6735 17.5154 27.5114 16.7613 27.9263 16.5426V16.5426ZM14.7882 18.6471C15.7204 18.4093 16.7231 19.1741 16.7295 20.1191C16.7892 21.0738 15.8015 21.9197 14.8479 21.6999C14.1098 21.5826 13.5306 20.8829 13.5551 20.1501C13.553 19.4482 14.0906 18.7954 14.7882 18.6471V18.6471ZM18.481 18.6461C19.4271 18.3858 20.4596 19.1645 20.4447 20.1309C20.4948 21.0674 19.538 21.8855 18.6036 21.6989C17.7236 21.5879 17.0751 20.6375 17.3204 19.797C17.4442 19.2381 17.9199 18.7837 18.481 18.645V18.6461ZM11.3599 19.2274C12.0148 19.1175 12.6292 19.8354 12.3636 20.4477C12.1695 21.1005 11.2052 21.2765 10.7786 20.7442C10.2794 20.2322 10.6527 19.2978 11.3599 19.2274V19.2274ZM22.1908 19.2562C22.7754 19.0151 23.4922 19.5122 23.4474 20.1362C23.4708 20.8221 22.5855 21.2957 22.0148 20.8946C21.3674 20.5351 21.4858 19.4759 22.1908 19.2562V19.2562ZM25.218 22.2429C24.9898 21.8237 25.4047 21.2679 25.8794 21.3458C26.114 21.3415 26.2794 21.5239 26.4298 21.6775C26.4607 21.9261 26.513 22.2226 26.3028 22.4135C26.018 22.7687 25.3727 22.6674 25.218 22.2429V22.2429ZM7.8655 21.4621C8.30817 21.173 8.94497 21.605 8.8447 22.1127C8.79137 22.5639 8.21537 22.821 7.8367 22.565C7.42924 22.3335 7.44417 21.6733 7.8655 21.4621V21.4621ZM16.6047 22.4039C17.1839 22.1533 17.922 22.6493 17.8666 23.2765C17.9092 23.9698 16.9972 24.4498 16.4308 24.0338C15.8015 23.6765 15.9071 22.6247 16.6047 22.4039V22.4039ZM12.5578 23.333C13.0506 23.0781 13.7119 23.5186 13.6671 24.0626C13.682 24.5085 13.2404 24.8882 12.7924 24.8221C12.4223 24.8146 12.1812 24.4871 12.0618 24.1767C12.0682 23.8386 12.21 23.4621 12.5578 23.3341V23.333ZM20.7562 23.3415C21.2639 23.0322 21.985 23.4759 21.937 24.0562C21.9498 24.6642 21.1348 25.0525 20.6623 24.6535C20.2058 24.341 20.2612 23.5901 20.7562 23.3415ZM22.1823 26.8082C21.9562 26.4733 22.2218 26.069 22.5876 25.9922C22.8831 26.0509 23.1956 26.2695 23.1327 26.6045C23.09 27.0599 22.4138 27.1986 22.1823 26.8093V26.8082ZM10.8639 26.517C10.9535 26.2503 11.1711 25.9869 11.49 26.0562C11.954 26.0882 12.0916 26.7773 11.6852 26.9895C11.3204 27.2317 10.8959 26.8999 10.8639 26.517ZM16.3252 26.8231C16.4138 26.4285 16.9311 26.2375 17.2724 26.4466C17.4986 26.5426 17.5647 26.7901 17.6223 27.0013C17.5919 27.111 17.5634 27.2212 17.537 27.3319C17.3972 27.4941 17.217 27.6573 16.9844 27.6519C16.5524 27.7021 16.162 27.221 16.3242 26.8231H16.3252Z" fill="white"/>
<defs>
<filter id="filter0_d_621_7450" x="2.91558" y="5.15798" width="28.1591" height="26.0263" filterUnits="userSpaceOnUse" color-interpolation-filters="sRGB">
<feFlood flood-opacity="0" result="BackgroundImageFix"/>
<feColorMatrix in="SourceAlpha" type="matrix" values="0 0 0 0 0 0 0 0 0 0 0 0 0 0 0 0 0 0 127 0" result="hardAlpha"/>
<feOffset dy="1.176"/>
<feGaussianBlur stdDeviation="1.176"/>
<feColorMatrix type="matrix" values="0 0 0 0 0 0 0 0 0 0 0 0 0 0 0 0 0 0 0.204257 0"/>
<feBlend mode="normal" in2="BackgroundImageFix" result="effect1_dropShadow_621_7450"/>
<feBlend mode="normal" in="SourceGraphic" in2="effect1_dropShadow_621_7450" result="shape"/>
</filter>
<linearGradient id="paint0_linear_621_7450" x1="1601" y1="1" x2="1601" y2="3201" gradientUnits="userSpaceOnUse">
<stop stop-color="white" stop-opacity="0.5"/>
<stop offset="1" stop-opacity="0.5"/>
</linearGradient>
</defs>
</svg>
