<svg width="464" height="640" viewBox="0 0 464 640" fill="none" xmlns="http://www.w3.org/2000/svg">
<rect width="464" height="640" rx="24" fill="url(#paint0_radial_545_36107)"/>
<path fill-rule="evenodd" clip-rule="evenodd" d="M232 265.828C207.604 265.828 187.828 285.604 187.828 310C187.828 334.396 207.604 354.172 232 354.172C256.396 354.172 276.172 334.396 276.172 310C276.172 285.604 256.396 265.828 232 265.828ZM189.748 310C189.748 286.665 208.665 267.748 232 267.748C255.335 267.748 274.252 286.665 274.252 310C274.252 333.335 255.335 352.252 232 352.252C208.665 352.252 189.748 333.335 189.748 310Z" fill="url(#paint1_radial_545_36107)"/>
<path fill-rule="evenodd" clip-rule="evenodd" d="M232 258.626C203.627 258.626 180.626 281.627 180.626 310C180.626 338.373 203.627 361.374 232 361.374C260.373 361.374 283.374 338.373 283.374 310C283.374 281.627 260.373 258.626 232 258.626ZM182.546 310C182.546 282.688 204.688 260.546 232 260.546C259.312 260.546 281.454 282.688 281.454 310C281.454 337.312 259.312 359.454 232 359.454C204.688 359.454 182.546 337.312 182.546 310Z" fill="url(#paint2_radial_545_36107)"/>
<path fill-rule="evenodd" clip-rule="evenodd" d="M173.424 310C173.424 277.649 199.649 251.424 232 251.424C264.351 251.424 290.576 277.649 290.576 310C290.576 342.351 264.351 368.576 232 368.576C199.649 368.576 173.424 342.351 173.424 310ZM232 253.344C200.71 253.344 175.344 278.71 175.344 310C175.344 341.29 200.71 366.656 232 366.656C263.29 366.656 288.656 341.29 288.656 310C288.656 278.71 263.29 253.344 232 253.344Z" fill="url(#paint3_radial_545_36107)"/>
<path fill-rule="evenodd" clip-rule="evenodd" d="M166.222 310C166.222 273.672 195.672 244.222 232 244.222C268.328 244.222 297.778 273.672 297.778 310C297.778 346.328 268.328 375.778 232 375.778C195.672 375.778 166.222 346.328 166.222 310ZM232 246.142C196.732 246.142 168.142 274.732 168.142 310C168.142 345.268 196.732 373.858 232 373.858C267.268 373.858 295.858 345.268 295.858 310C295.858 274.732 267.268 246.142 232 246.142Z" fill="url(#paint4_radial_545_36107)"/>
<path fill-rule="evenodd" clip-rule="evenodd" d="M159.02 310C159.02 269.694 191.694 237.02 232 237.02C272.306 237.02 304.98 269.694 304.98 310C304.98 350.306 272.306 382.98 232 382.98C191.694 382.98 159.02 350.306 159.02 310ZM232 238.94C192.755 238.94 160.94 270.755 160.94 310C160.94 349.245 192.755 381.06 232 381.06C271.245 381.06 303.06 349.245 303.06 310C303.06 270.755 271.245 238.94 232 238.94Z" fill="url(#paint5_radial_545_36107)"/>
<path fill-rule="evenodd" clip-rule="evenodd" d="M232 229.818C187.717 229.818 151.818 265.717 151.818 310C151.818 354.283 187.717 390.182 232 390.182C276.283 390.182 312.182 354.283 312.182 310C312.182 265.717 276.283 229.818 232 229.818ZM153.738 310C153.738 266.777 188.777 231.738 232 231.738C275.223 231.738 310.262 266.777 310.262 310C310.262 353.223 275.223 388.262 232 388.262C188.777 388.262 153.738 353.223 153.738 310Z" fill="url(#paint6_radial_545_36107)"/>
<path fill-rule="evenodd" clip-rule="evenodd" d="M144.616 310C144.616 261.739 183.739 222.616 232 222.616C280.261 222.616 319.384 261.739 319.384 310C319.384 358.261 280.261 397.384 232 397.384C183.739 397.384 144.616 358.261 144.616 310ZM232 224.536C184.8 224.536 146.536 262.8 146.536 310C146.536 357.2 184.8 395.464 232 395.464C279.2 395.464 317.464 357.2 317.464 310C317.464 262.8 279.2 224.536 232 224.536Z" fill="url(#paint7_radial_545_36107)"/>
<path fill-rule="evenodd" clip-rule="evenodd" d="M232 215.414C179.762 215.414 137.414 257.762 137.414 310C137.414 362.238 179.762 404.586 232 404.586C284.238 404.586 326.586 362.238 326.586 310C326.586 257.762 284.238 215.414 232 215.414ZM139.334 310C139.334 258.822 180.822 217.334 232 217.334C283.178 217.334 324.666 258.822 324.666 310C324.666 361.178 283.178 402.666 232 402.666C180.822 402.666 139.334 361.178 139.334 310Z" fill="url(#paint8_radial_545_36107)"/>
<path fill-rule="evenodd" clip-rule="evenodd" d="M130.212 310C130.212 253.784 175.784 208.212 232 208.212C288.216 208.212 333.788 253.784 333.788 310C333.788 366.216 288.216 411.788 232 411.788C175.784 411.788 130.212 366.216 130.212 310ZM232 210.132C176.845 210.132 132.132 254.845 132.132 310C132.132 365.155 176.845 409.868 232 409.868C287.155 409.868 331.868 365.155 331.868 310C331.868 254.845 287.155 210.132 232 210.132Z" fill="url(#paint9_radial_545_36107)"/>
<path fill-rule="evenodd" clip-rule="evenodd" d="M232 201.01C171.806 201.01 123.01 249.806 123.01 310C123.01 370.194 171.806 418.99 232 418.99C292.194 418.99 340.99 370.194 340.99 310C340.99 249.806 292.194 201.01 232 201.01ZM124.93 310C124.93 250.867 172.867 202.93 232 202.93C291.133 202.93 339.07 250.867 339.07 310C339.07 369.133 291.133 417.07 232 417.07C172.867 417.07 124.93 369.133 124.93 310Z" fill="url(#paint10_radial_545_36107)"/>
<path fill-rule="evenodd" clip-rule="evenodd" d="M115.808 310C115.808 245.829 167.829 193.808 232 193.808C296.171 193.808 348.192 245.829 348.192 310C348.192 374.171 296.171 426.192 232 426.192C167.829 426.192 115.808 374.171 115.808 310ZM232 195.728C168.89 195.728 117.728 246.89 117.728 310C117.728 373.11 168.89 424.272 232 424.272C295.11 424.272 346.272 373.11 346.272 310C346.272 246.89 295.11 195.728 232 195.728Z" fill="url(#paint11_radial_545_36107)"/>
<path fill-rule="evenodd" clip-rule="evenodd" d="M232 186.606C163.851 186.606 108.606 241.851 108.606 310C108.606 378.149 163.851 433.394 232 433.394C300.149 433.394 355.394 378.149 355.394 310C355.394 241.851 300.149 186.606 232 186.606ZM110.526 310C110.526 242.912 164.912 188.526 232 188.526C299.088 188.526 353.474 242.912 353.474 310C353.474 377.088 299.088 431.474 232 431.474C164.912 431.474 110.526 377.088 110.526 310Z" fill="url(#paint12_radial_545_36107)"/>
<path fill-rule="evenodd" clip-rule="evenodd" d="M101.404 310C101.404 237.874 159.874 179.404 232 179.404C304.126 179.404 362.596 237.874 362.596 310C362.596 382.126 304.126 440.596 232 440.596C159.874 440.596 101.404 382.126 101.404 310ZM232 181.325C160.934 181.325 103.325 238.934 103.325 310C103.325 381.066 160.934 438.676 232 438.676C303.066 438.676 360.675 381.066 360.675 310C360.675 238.934 303.066 181.325 232 181.325Z" fill="url(#paint13_radial_545_36107)"/>
<path fill-rule="evenodd" clip-rule="evenodd" d="M232 172.202C155.896 172.202 94.202 233.896 94.202 310C94.202 386.104 155.896 447.798 232 447.798C308.104 447.798 369.798 386.104 369.798 310C369.798 233.896 308.104 172.202 232 172.202ZM96.1225 310C96.1225 234.957 156.957 174.123 232 174.123C307.043 174.123 367.877 234.957 367.877 310C367.877 385.043 307.043 445.878 232 445.878C156.957 445.878 96.1225 385.043 96.1225 310Z" fill="url(#paint14_radial_545_36107)"/>
<path fill-rule="evenodd" clip-rule="evenodd" d="M87 310C87 229.919 151.919 165 232 165C312.081 165 377 229.919 377 310C377 390.081 312.081 455 232 455C151.919 455 87 390.081 87 310ZM232 166.921C152.979 166.921 88.9205 230.979 88.9205 310C88.9205 389.021 152.979 453.079 232 453.079C311.021 453.079 375.079 389.021 375.079 310C375.079 230.979 311.021 166.921 232 166.921Z" fill="url(#paint15_radial_545_36107)"/>
<defs>
<radialGradient id="paint0_radial_545_36107" cx="0" cy="0" r="1" gradientUnits="userSpaceOnUse" gradientTransform="translate(232 294.788) rotate(90) scale(509.091 1087.5)">
<stop stop-color="#2B0A72"/>
<stop offset="1"/>
</radialGradient>
<radialGradient id="paint1_radial_545_36107" cx="0" cy="0" r="1" gradientUnits="userSpaceOnUse" gradientTransform="translate(232 310) rotate(90) scale(236.37)">
<stop stop-color="#7737FF"/>
<stop offset="1" stop-color="#7737FF" stop-opacity="0"/>
</radialGradient>
<radialGradient id="paint2_radial_545_36107" cx="0" cy="0" r="1" gradientUnits="userSpaceOnUse" gradientTransform="translate(232 310) rotate(90) scale(236.37)">
<stop stop-color="#7737FF"/>
<stop offset="1" stop-color="#7737FF" stop-opacity="0"/>
</radialGradient>
<radialGradient id="paint3_radial_545_36107" cx="0" cy="0" r="1" gradientUnits="userSpaceOnUse" gradientTransform="translate(232 310) rotate(90) scale(236.37)">
<stop stop-color="#7737FF"/>
<stop offset="1" stop-color="#7737FF" stop-opacity="0"/>
</radialGradient>
<radialGradient id="paint4_radial_545_36107" cx="0" cy="0" r="1" gradientUnits="userSpaceOnUse" gradientTransform="translate(232 310) rotate(90) scale(236.37)">
<stop stop-color="#7737FF"/>
<stop offset="1" stop-color="#7737FF" stop-opacity="0"/>
</radialGradient>
<radialGradient id="paint5_radial_545_36107" cx="0" cy="0" r="1" gradientUnits="userSpaceOnUse" gradientTransform="translate(232 310) rotate(90) scale(236.37)">
<stop stop-color="#7737FF"/>
<stop offset="1" stop-color="#7737FF" stop-opacity="0"/>
</radialGradient>
<radialGradient id="paint6_radial_545_36107" cx="0" cy="0" r="1" gradientUnits="userSpaceOnUse" gradientTransform="translate(232 310) rotate(90) scale(236.37)">
<stop stop-color="#7737FF"/>
<stop offset="1" stop-color="#7737FF" stop-opacity="0"/>
</radialGradient>
<radialGradient id="paint7_radial_545_36107" cx="0" cy="0" r="1" gradientUnits="userSpaceOnUse" gradientTransform="translate(232 310) rotate(90) scale(236.37)">
<stop stop-color="#7737FF"/>
<stop offset="1" stop-color="#7737FF" stop-opacity="0"/>
</radialGradient>
<radialGradient id="paint8_radial_545_36107" cx="0" cy="0" r="1" gradientUnits="userSpaceOnUse" gradientTransform="translate(232 310) rotate(90) scale(236.37)">
<stop stop-color="#7737FF"/>
<stop offset="1" stop-color="#7737FF" stop-opacity="0"/>
</radialGradient>
<radialGradient id="paint9_radial_545_36107" cx="0" cy="0" r="1" gradientUnits="userSpaceOnUse" gradientTransform="translate(232 310) rotate(90) scale(236.37)">
<stop stop-color="#7737FF"/>
<stop offset="1" stop-color="#7737FF" stop-opacity="0"/>
</radialGradient>
<radialGradient id="paint10_radial_545_36107" cx="0" cy="0" r="1" gradientUnits="userSpaceOnUse" gradientTransform="translate(232 310) rotate(90) scale(236.37)">
<stop stop-color="#7737FF"/>
<stop offset="1" stop-color="#7737FF" stop-opacity="0"/>
</radialGradient>
<radialGradient id="paint11_radial_545_36107" cx="0" cy="0" r="1" gradientUnits="userSpaceOnUse" gradientTransform="translate(232 310) rotate(90) scale(236.37)">
<stop stop-color="#7737FF"/>
<stop offset="1" stop-color="#7737FF" stop-opacity="0"/>
</radialGradient>
<radialGradient id="paint12_radial_545_36107" cx="0" cy="0" r="1" gradientUnits="userSpaceOnUse" gradientTransform="translate(232 310) rotate(90) scale(236.37)">
<stop stop-color="#7737FF"/>
<stop offset="1" stop-color="#7737FF" stop-opacity="0"/>
</radialGradient>
<radialGradient id="paint13_radial_545_36107" cx="0" cy="0" r="1" gradientUnits="userSpaceOnUse" gradientTransform="translate(232 310) rotate(90) scale(236.37)">
<stop stop-color="#7737FF"/>
<stop offset="1" stop-color="#7737FF" stop-opacity="0"/>
</radialGradient>
<radialGradient id="paint14_radial_545_36107" cx="0" cy="0" r="1" gradientUnits="userSpaceOnUse" gradientTransform="translate(232 310) rotate(90) scale(236.37)">
<stop stop-color="#7737FF"/>
<stop offset="1" stop-color="#7737FF" stop-opacity="0"/>
</radialGradient>
<radialGradient id="paint15_radial_545_36107" cx="0" cy="0" r="1" gradientUnits="userSpaceOnUse" gradientTransform="translate(232 310) rotate(90) scale(236.37)">
<stop stop-color="#7737FF"/>
<stop offset="1" stop-color="#7737FF" stop-opacity="0"/>
</radialGradient>
</defs>
</svg>
