<svg width="48" height="48" viewBox="0 0 48 48" fill="none" xmlns="http://www.w3.org/2000/svg">
<path d="M24 48C37.2548 48 48 37.2548 48 24C48 10.7452 37.2548 0 24 0C10.7452 0 0 10.7452 0 24C0 37.2548 10.7452 48 24 48Z" fill="#F7931A"/>
<path d="M34.7834 21.03C35.2544 17.886 32.8589 16.1955 29.5859 15.0675L30.6479 10.8075L28.0559 10.1625L27.0209 14.31C26.3399 14.139 25.6409 13.98 24.9434 13.821L25.9859 9.6465L23.3939 9L22.3319 13.2585C21.7679 13.1295 21.2129 13.0035 20.6759 12.8685L20.6789 12.855L17.1029 11.9625L16.4129 14.7315C16.4129 14.7315 18.3374 15.1725 18.2969 15.1995C19.3469 15.462 19.5359 16.1565 19.5044 16.7085L18.2954 21.561C18.3674 21.579 18.4604 21.606 18.5654 21.6465L18.2909 21.579L16.5959 28.377C16.4669 28.695 16.1414 29.1735 15.4064 28.992C15.4334 29.0295 13.5224 28.5225 13.5224 28.5225L12.2354 31.4895L15.6104 32.331C16.2374 32.4885 16.8524 32.6535 17.4569 32.808L16.3844 37.116L18.9749 37.761L20.0369 33.501C20.7449 33.6915 21.4319 33.8685 22.1039 34.0365L21.0449 38.2785L23.6369 38.9235L24.7094 34.6245C29.1314 35.4615 32.4554 35.124 33.8549 31.125C34.9829 27.906 33.7994 26.0475 31.4729 24.837C33.1679 24.447 34.4429 23.3325 34.7834 21.03ZM28.8584 29.337C28.0589 32.5575 22.6364 30.816 20.8784 30.3795L22.3034 24.672C24.0614 25.1115 29.6969 25.98 28.8584 29.337ZM29.6609 20.9835C28.9304 23.913 24.4184 22.4235 22.9559 22.059L24.2459 16.884C25.7084 17.2485 30.4229 17.928 29.6609 20.9835Z" fill="white"/>
</svg>
