<svg width="120" height="56" viewBox="0 0 120 56" fill="none" xmlns="http://www.w3.org/2000/svg">
<g clip-path="url(#clip0_616_20397)">
<path opacity="0.3" d="M2.75331 21.2846L2.17888 20.66C1.94122 20.4016 1.60618 20.2545 1.25509 20.2545C0.561923 20.2545 0 20.8165 0 21.5096V60C0 61.1046 0.895428 62 2 62H119C120.105 62 121 61.1046 121 60V8.44095C121 8.19299 120.65 8.14059 120.578 8.37767C120.559 8.438 120.515 8.48722 120.457 8.51238L118.619 9.31199C118.403 9.40599 118.209 9.54416 118.049 9.71763L117.949 9.82616C117.385 10.4392 116.436 10.492 115.808 9.94545L115.272 9.47973C114.942 9.19242 114.443 9.22021 114.147 9.54243L113.752 9.9717C113.549 10.1926 113.186 10.1355 113.061 9.8628C112.959 9.64188 112.692 9.55303 112.478 9.66917L111.03 10.4565C110.49 10.7501 109.838 10.7501 109.298 10.4565C108.327 9.92834 107.113 10.3855 106.731 11.4234L106.621 11.7231C106.575 11.8468 106.518 11.9657 106.449 12.078L105.094 14.2879C104.868 14.6558 104.768 15.0867 104.807 15.5165L105.15 19.2408C105.179 19.5581 105.016 19.8622 104.737 20.0144L104.545 20.1183C104.392 20.2015 104.205 20.1894 104.064 20.0871C103.833 19.9197 103.506 20.0052 103.387 20.2644L103.053 20.9909C102.761 21.6261 101.961 21.8357 101.395 21.4254L101.287 21.3468C101.186 21.2739 101.101 21.1819 101.036 21.076L100.802 20.6946C100.541 20.2685 99.9218 20.2685 99.6606 20.6946C99.4744 20.9982 99.083 21.103 98.77 20.9328L97.7587 20.383C97.6019 20.2978 97.4339 20.2353 97.2596 20.1974L96.8241 20.1027C95.9427 19.911 95.0616 20.4268 94.7972 21.2892L94.2166 23.183C94.081 23.6254 93.5165 23.7534 93.2033 23.4129C92.904 23.0875 92.3674 23.1874 92.2053 23.5987L91.3156 25.8559C91.2402 26.0472 91.2015 26.251 91.2015 26.4567V27.3224C91.2015 27.966 90.5897 28.4337 89.9686 28.2649C89.6165 28.1692 89.2405 28.2777 88.9935 28.5462L88.6017 28.9722C88.5291 29.0512 88.4499 29.124 88.3652 29.1898L86.3388 30.7636C85.8017 31.1807 85.0213 31.0385 84.6658 30.4587C84.5138 30.2108 84.2728 30.0302 83.9922 29.954L83.6509 29.8612C83.0195 29.6896 82.3451 29.8842 81.9021 30.3658C81.5063 30.7962 80.9218 31.0007 80.3439 30.9109L78.2608 30.5873C78.1592 30.5716 78.0566 30.5636 77.9538 30.5636H75.0391C74.5107 30.5636 74.0038 30.7727 73.629 31.1452L73.1626 31.609C72.6144 32.1539 71.7735 32.2743 71.0944 31.9051C70.6721 31.6755 70.1739 31.6299 69.7169 31.779L66.9955 32.6667C66.3271 32.8847 65.5932 32.7357 65.0627 32.2743L63.867 31.2342C63.7301 31.1151 63.6122 30.9758 63.5173 30.8211L63.2984 30.464C62.9835 29.9505 62.3509 29.7292 61.7846 29.9344C61.5364 30.0244 61.3224 30.1895 61.1725 30.4068L60.776 30.9818C60.3623 31.5814 59.5629 31.7724 58.9229 31.4244C58.4987 31.1938 57.9864 31.1938 57.5621 31.4244L57.3396 31.5455L56.2271 32.1503C55.7946 32.3854 55.2725 32.3854 54.8401 32.1503L54.7537 32.1033C54.1657 31.7836 53.4321 31.9471 53.0355 32.4862L52.6686 32.9847C52.3029 33.4818 51.5564 33.4704 51.2059 32.9624C50.8787 32.488 50.1957 32.4402 49.8056 32.8644L49.5365 33.157C49.101 33.6305 48.3721 33.6827 47.8736 33.2762L47.3433 32.8438C47.0888 32.6362 46.7857 32.4965 46.4624 32.438L44.9071 32.1561C44.4783 32.0784 44.0866 31.8628 43.7916 31.542L43.4787 31.2018C43.1133 30.8045 42.5698 30.622 42.0386 30.7182L41.5664 30.8038C40.8458 30.9344 40.1828 30.3808 40.1828 29.6485C40.1828 29.2957 40.0242 28.9615 39.7507 28.7385L38.923 28.0635C38.6015 27.8013 38.4979 27.3549 38.6713 26.978C38.7719 26.7592 38.7817 26.5095 38.6985 26.2835L37.9779 24.3245C37.9429 24.2295 37.9008 24.1373 37.8519 24.0487L37.4218 23.2693C36.951 22.4161 35.8797 22.103 35.0236 22.5685C34.8523 22.6616 34.6976 22.7823 34.5656 22.9258L34.5439 22.9494C34.1158 23.4149 33.4897 23.6459 32.8618 23.5701L30.0253 23.2274C29.8746 23.2092 29.7264 23.1739 29.5837 23.1222L28.9232 22.8827C28.6155 22.7712 28.2768 22.7818 27.9767 22.9123L26.8289 23.4116C26.5256 23.5435 26.1866 23.3212 26.1866 22.9905C26.1866 22.6422 25.814 22.4207 25.5081 22.5871L25.1943 22.7576C24.793 22.9758 24.2957 22.7384 24.2131 22.2891L24.1446 21.9169C24.0344 21.3179 23.3953 20.9776 22.8369 21.2205L21.8352 21.6561C21.7264 21.7034 21.6133 21.74 21.4973 21.7652L20.038 22.0825C19.6411 22.1688 19.2262 22.0819 18.8973 21.8435L18.7369 21.7273C18.3329 21.4344 17.7865 21.4344 17.3825 21.7273L17.3624 21.7418C16.9704 22.026 16.4401 22.026 16.0481 21.7418C15.637 21.4438 15.0768 21.4598 14.6833 21.7807L14.343 22.0582C13.8527 22.4579 13.1804 22.5506 12.6003 22.2983L11.6821 21.899C11.4251 21.7872 11.2087 21.5991 11.0623 21.3602L10.9741 21.2164C10.6435 20.6773 9.9487 20.4914 9.39311 20.7934L9.32838 20.8286C8.88752 21.0683 8.34015 20.9774 8.00046 20.608L7.98101 20.5869C7.78622 20.3751 7.51163 20.2545 7.22388 20.2545C6.93613 20.2545 6.66154 20.3751 6.46675 20.5869L5.55113 21.5824C5.25797 21.9012 4.74129 21.851 4.51493 21.4818L4.4463 21.3699C4.25434 21.0568 3.81619 21.0143 3.56759 21.2846C3.34845 21.5229 2.97244 21.5229 2.75331 21.2846Z" fill="url(#paint0_linear_616_20397)"/>
<path d="M0 20.2545H1.23055C1.59728 20.2545 1.94724 20.4082 2.1955 20.6781L2.75331 21.2846C2.97244 21.5229 3.34845 21.5229 3.56759 21.2846V21.2846C3.81619 21.0143 4.25434 21.0568 4.4463 21.3699L4.51493 21.4818C4.74129 21.851 5.25797 21.9012 5.55113 21.5824L6.46676 20.5869C6.66154 20.3751 6.93613 20.2545 7.22388 20.2545V20.2545C7.51163 20.2545 7.78622 20.3751 7.98101 20.5869L8.00046 20.608C8.34015 20.9774 8.88752 21.0683 9.32838 20.8286L9.39311 20.7934C9.9487 20.4914 10.6435 20.6773 10.9741 21.2164L11.0623 21.3602C11.2087 21.5991 11.4251 21.7872 11.6821 21.899L12.6003 22.2983C13.1804 22.5506 13.8527 22.4579 14.343 22.0582L14.6833 21.7807C15.0768 21.4598 15.637 21.4438 16.0481 21.7418V21.7418C16.4401 22.026 16.9704 22.026 17.3624 21.7418L17.3825 21.7273C17.7865 21.4344 18.3329 21.4344 18.7369 21.7273L18.8973 21.8435C19.2262 22.0819 19.6411 22.1688 20.038 22.0825L21.4973 21.7652C21.6133 21.74 21.7264 21.7034 21.8352 21.6561L22.8369 21.2205C23.3953 20.9776 24.0344 21.3179 24.1446 21.9169L24.2131 22.2891C24.2957 22.7384 24.793 22.9758 25.1943 22.7576L25.5081 22.5871C25.814 22.4207 26.1866 22.6422 26.1866 22.9905V22.9905C26.1866 23.3212 26.5256 23.5434 26.8289 23.4116L27.9767 22.9123C28.2768 22.7818 28.6155 22.7712 28.9232 22.8827L29.5837 23.1222C29.7264 23.1739 29.8746 23.2092 30.0253 23.2274L32.8618 23.5701C33.4897 23.6459 34.1158 23.4149 34.5439 22.9494L34.5656 22.9258C34.6976 22.7823 34.8523 22.6616 35.0236 22.5685V22.5685C35.8797 22.103 36.951 22.4161 37.4218 23.2693L37.8519 24.0487C37.9008 24.1373 37.9429 24.2295 37.9779 24.3245L38.6985 26.2835C38.7817 26.5095 38.7719 26.7592 38.6713 26.978V26.978C38.4979 27.3549 38.6015 27.8013 38.923 28.0635L39.7507 28.7385C40.0242 28.9615 40.1828 29.2956 40.1828 29.6485V29.6485C40.1828 30.3808 40.8458 30.9344 41.5664 30.8038L42.0386 30.7182C42.5698 30.622 43.1133 30.8045 43.4787 31.2018L43.7916 31.542C44.0866 31.8628 44.4783 32.0784 44.9071 32.1561L46.4624 32.438C46.7857 32.4965 47.0888 32.6362 47.3433 32.8438L47.8736 33.2762C48.3721 33.6827 49.101 33.6305 49.5365 33.157L49.8056 32.8644C50.1957 32.4402 50.8787 32.488 51.2059 32.9624V32.9624C51.5564 33.4704 52.3029 33.4818 52.6686 32.9847L53.0355 32.4862C53.4321 31.9471 54.1657 31.7836 54.7537 32.1033L54.8401 32.1503C55.2725 32.3854 55.7946 32.3854 56.2271 32.1503L57.3396 31.5455L57.5621 31.4244C57.9864 31.1938 58.4987 31.1938 58.9229 31.4244V31.4244C59.5629 31.7724 60.3623 31.5814 60.776 30.9818L61.1725 30.4068C61.3224 30.1895 61.5364 30.0244 61.7846 29.9344V29.9344C62.3509 29.7292 62.9835 29.9505 63.2984 30.464L63.5173 30.8211C63.6122 30.9758 63.7301 31.1151 63.867 31.2342L65.0627 32.2743C65.5932 32.7357 66.3271 32.8847 66.9955 32.6667L69.7169 31.779C70.1739 31.6299 70.6721 31.6755 71.0944 31.9051V31.9051C71.7735 32.2743 72.6144 32.1539 73.1626 31.609L73.629 31.1452C74.0038 30.7727 74.5107 30.5636 75.0391 30.5636H77.9538C78.0566 30.5636 78.1592 30.5716 78.2608 30.5873L80.344 30.9109C80.9218 31.0007 81.5063 30.7962 81.9021 30.3658V30.3658C82.3451 29.8842 83.0195 29.6896 83.6509 29.8612L83.9922 29.954C84.2728 30.0302 84.5138 30.2108 84.6658 30.4587V30.4587C85.0213 31.0385 85.8017 31.1807 86.3388 30.7636L88.3652 29.1898C88.4499 29.124 88.5291 29.0512 88.6017 28.9722L88.9935 28.5462C89.2405 28.2777 89.6165 28.1692 89.9686 28.2649V28.2649C90.5897 28.4337 91.2015 27.966 91.2015 27.3224V26.4567C91.2015 26.251 91.2402 26.0472 91.3156 25.8559L92.2053 23.5987C92.3674 23.1874 92.904 23.0875 93.2033 23.4129V23.4129C93.5165 23.7534 94.081 23.6254 94.2166 23.183L94.7972 21.2892C95.0616 20.4268 95.9428 19.911 96.8241 20.1027L97.2596 20.1974C97.4339 20.2353 97.6019 20.2978 97.7587 20.383L98.77 20.9328C99.083 21.103 99.4744 20.9982 99.6606 20.6946V20.6946C99.9218 20.2685 100.541 20.2685 100.802 20.6946L101.036 21.076C101.101 21.1819 101.186 21.2739 101.287 21.3468L101.395 21.4254C101.961 21.8357 102.761 21.6261 103.053 20.9909L103.387 20.2644C103.506 20.0052 103.833 19.9197 104.064 20.0871V20.0871C104.205 20.1894 104.392 20.2015 104.545 20.1183L104.737 20.0144C105.016 19.8622 105.179 19.5581 105.15 19.2408L104.807 15.5165C104.768 15.0867 104.868 14.6558 105.094 14.2879L106.449 12.078C106.518 11.9657 106.575 11.8468 106.621 11.7231L106.731 11.4234C107.113 10.3855 108.327 9.92834 109.298 10.4565V10.4565C109.838 10.7501 110.49 10.7501 111.03 10.4565L112.478 9.66917C112.692 9.55303 112.959 9.64188 113.061 9.8628V9.8628C113.186 10.1355 113.549 10.1926 113.752 9.9717L114.147 9.54243C114.443 9.22021 114.942 9.19242 115.272 9.47973L115.808 9.94545C116.436 10.492 117.385 10.4392 117.949 9.82616L118.049 9.71763C118.209 9.54416 118.403 9.40599 118.619 9.31199L119.704 8.84004C120.24 8.60693 120.647 8.15102 120.818 7.5922L121 7" stroke="#06A85A"/>
</g>
<defs>
<linearGradient id="paint0_linear_616_20397" x1="60.5" y1="7" x2="60.5" y2="62" gradientUnits="userSpaceOnUse">
<stop stop-color="#06A85A"/>
<stop offset="1" stop-color="#06A85A" stop-opacity="0"/>
</linearGradient>
<clipPath id="clip0_616_20397">
<rect width="120" height="56" fill="white"/>
</clipPath>
</defs>
</svg>
