<svg width="166" height="56" viewBox="0 0 166 56" fill="none" xmlns="http://www.w3.org/2000/svg">
<g clip-path="url(#clip0_617_13949)">
<path opacity="0.3" d="M3.80198 21.2861L2.99647 20.6516C2.67004 20.3944 2.26657 20.2545 1.851 20.2545C0.828722 20.2545 0 21.0833 0 22.1055V60C0 61.1046 0.895433 62 2 62H165C166.105 62 167 61.1046 167 60V8.46216C167 8.13886 166.556 8.04884 166.43 8.34658C166.396 8.42662 166.329 8.48778 166.246 8.51389L163.61 9.34454C163.379 9.41727 163.164 9.53129 162.974 9.68104L162.501 10.0533C161.836 10.5772 160.913 10.6257 160.197 10.1743L159.06 9.45772C158.59 9.16153 157.985 9.19332 157.548 9.53709L156.93 10.0241C156.65 10.2447 156.241 10.1749 156.05 9.87396C155.895 9.63049 155.59 9.53092 155.321 9.6366L152.778 10.6385C152.307 10.8241 151.783 10.8241 151.312 10.6385L149.999 10.1213C149.039 9.74329 147.949 10.157 147.482 11.0767L147.165 11.7009C147.095 11.8392 147.009 11.9689 146.909 12.0874L145.135 14.1832C144.773 14.611 144.607 15.1711 144.678 15.727L145.084 18.9273C145.147 19.4193 144.867 19.8909 144.406 20.0726L144.27 20.1261C144.063 20.2076 143.831 20.195 143.634 20.0916C143.281 19.9063 142.845 20.0226 142.631 20.3591L142.23 20.9909C141.79 21.6844 140.892 21.9242 140.165 21.5423L139.824 21.3633C139.664 21.2795 139.522 21.1656 139.406 21.0279L139.112 20.6804C138.706 20.2007 137.966 20.2007 137.56 20.6804C137.279 21.0127 136.817 21.129 136.412 20.9694L134.802 20.3351C134.666 20.2816 134.524 20.2431 134.38 20.2203L133.025 20.0069C132.118 19.864 131.23 20.3573 130.872 21.2032L130.099 23.031C129.854 23.6104 129.125 23.7979 128.63 23.4085C128.166 23.0429 127.485 23.1829 127.202 23.7019L126.076 25.7725C125.943 26.0172 125.873 26.2914 125.873 26.5701V26.7564C125.873 27.7112 125.001 28.4282 124.064 28.2437C123.63 28.1583 123.181 28.2666 122.833 28.5403L122.256 28.995C122.175 29.0588 122.089 29.1163 121.999 29.1669L118.953 30.8811C118.268 31.2667 117.405 31.1115 116.897 30.5113C116.657 30.2274 116.327 30.0336 115.962 29.9617L114.936 29.7595C114.363 29.6467 113.77 29.7896 113.311 30.1507L112.809 30.5463C112.396 30.8719 111.871 31.0215 111.348 30.9627L107.802 30.5636H103.073C102.653 30.5636 102.245 30.6956 101.904 30.9408L100.587 31.8891C100.035 32.2868 99.3187 32.3765 98.6856 32.1271L97.7921 31.7751C97.4124 31.6256 96.9961 31.5958 96.5991 31.6896L91.7942 32.8252C91.2719 32.9486 90.7218 32.857 90.2678 32.5708L88.123 31.2191C87.95 31.11 87.7947 30.9751 87.6626 30.819L87.4304 30.5446C86.9326 29.9564 86.1411 29.7064 85.3957 29.9022L85.2954 29.9285C84.9364 30.0228 84.6107 30.2151 84.3548 30.4839L83.8054 31.061C83.2441 31.6506 82.3814 31.8412 81.6239 31.5428L81.1173 31.3433C80.6463 31.1577 80.1224 31.1577 79.6513 31.3433L79.1381 31.5455L77.3785 32.2385C76.9075 32.4241 76.3836 32.4241 75.9125 32.2385L75.3628 32.022C74.6272 31.7322 73.7899 31.903 73.2265 32.4578L72.6797 32.9963C72.1196 33.5479 71.2161 33.5333 70.6741 32.9639C70.1736 32.4382 69.3552 32.3797 68.785 32.8289L68.3684 33.1571C67.7235 33.6652 66.8327 33.7248 66.1258 33.3071L65.1578 32.7352C64.9256 32.598 64.6681 32.5092 64.4008 32.4741L61.6125 32.108C61.2556 32.0611 60.9179 31.9188 60.6352 31.696L59.86 31.0853C59.4365 30.7517 58.8964 30.6032 58.3619 30.6734L56.7564 30.8842C56.0689 30.9745 55.459 30.4394 55.459 29.746C55.459 29.34 55.2445 28.9642 54.895 28.7577L53.6117 27.9994C53.2587 27.7909 53.1483 27.3316 53.368 26.9854C53.5054 26.769 53.5184 26.4963 53.4024 26.2677L52.4255 24.3437C52.3708 24.236 52.3065 24.1335 52.2333 24.0374L51.3905 22.9307C50.8482 22.2188 49.899 21.9537 49.0664 22.2817L48.255 22.6013C48.0735 22.6728 47.9035 22.7704 47.7503 22.8911L47.3576 23.2005C46.9577 23.5155 46.4527 23.6662 45.9456 23.6218L41.2961 23.2148C41.1835 23.205 41.0719 23.1856 40.9625 23.1568L39.8095 22.8541C39.4488 22.7593 39.0687 22.7686 38.7131 22.8806L36.8181 23.4778C36.483 23.5834 36.1418 23.3332 36.1418 22.9819C36.1418 22.6152 35.7724 22.3637 35.4312 22.4981L34.736 22.7719C34.1594 22.9991 33.5143 22.6686 33.3618 22.0679L33.3267 21.9296C33.1635 21.2868 32.4935 20.9133 31.8609 21.1126L30.0528 21.6824C29.958 21.7123 29.8612 21.735 29.763 21.7505L27.4494 22.115C27.0243 22.182 26.589 22.1101 26.2081 21.9101L25.8553 21.7248C25.2731 21.419 24.5777 21.419 23.9954 21.7248L23.9627 21.7419C23.395 22.0401 22.7169 22.0401 22.1492 21.7419C21.5508 21.4277 20.8323 21.4457 20.2504 21.7895L19.4619 22.2554C18.9732 22.5442 18.3848 22.6116 17.8434 22.441L16.1075 21.894C15.7618 21.7851 15.4541 21.5804 15.22 21.3038C14.6892 20.6765 13.8178 20.4571 13.0532 20.7583L12.7601 20.8738C12.19 21.0983 11.5436 21.0032 11.0624 20.6241C10.7585 20.3847 10.3829 20.2545 9.99612 20.2545H9.97015C9.5665 20.2545 9.1746 20.3904 8.85753 20.6402L7.61222 21.6212C7.1895 21.9542 6.57897 21.8926 6.23134 21.4818L6.1726 21.4124C5.85775 21.0403 5.30477 20.9845 4.9219 21.2861C4.59344 21.5449 4.13044 21.5449 3.80198 21.2861Z" fill="url(#paint0_linear_617_13949)"/>
<path d="M0 20.2545H1.79936C2.24838 20.2545 2.68433 20.4056 3.03704 20.6835L3.80198 21.2861C4.13044 21.5449 4.59344 21.5449 4.9219 21.2861V21.2861C5.30477 20.9845 5.85775 21.0403 6.1726 21.4124L6.23134 21.4818C6.57897 21.8926 7.1895 21.9542 7.61222 21.6212L8.85753 20.6402C9.1746 20.3904 9.5665 20.2545 9.97015 20.2545H9.99612C10.3829 20.2545 10.7585 20.3847 11.0624 20.6241V20.6241C11.5436 21.0032 12.19 21.0983 12.7601 20.8738L13.0532 20.7583C13.8178 20.4571 14.6892 20.6765 15.22 21.3038V21.3038C15.4541 21.5804 15.7618 21.7851 16.1075 21.894L17.8434 22.441C18.3848 22.6116 18.9732 22.5442 19.4619 22.2554L20.2504 21.7895C20.8323 21.4457 21.5508 21.4277 22.1492 21.7419V21.7419C22.7169 22.0401 23.395 22.0401 23.9627 21.7419L23.9954 21.7248C24.5777 21.419 25.2731 21.419 25.8553 21.7248L26.2081 21.9101C26.589 22.1101 27.0243 22.182 27.4493 22.115L29.763 21.7505C29.8612 21.735 29.958 21.7123 30.0528 21.6824L31.8609 21.1126C32.4935 20.9133 33.1635 21.2868 33.3267 21.9296L33.3618 22.0679C33.5143 22.6686 34.1594 22.9991 34.736 22.7719L35.4312 22.4981C35.7724 22.3637 36.1418 22.6152 36.1418 22.9819V22.9819C36.1418 23.3332 36.483 23.5834 36.818 23.4778L38.7131 22.8806C39.0687 22.7686 39.4488 22.7593 39.8095 22.8541L40.9625 23.1568C41.0719 23.1856 41.1835 23.205 41.2961 23.2148L45.9456 23.6218C46.4527 23.6662 46.9577 23.5155 47.3576 23.2005L47.7503 22.8911C47.9035 22.7704 48.0735 22.6728 48.255 22.6013L49.0664 22.2817C49.899 21.9537 50.8482 22.2188 51.3905 22.9307L52.2333 24.0374C52.3065 24.1335 52.3708 24.236 52.4255 24.3437L53.4024 26.2677C53.5184 26.4963 53.5054 26.769 53.368 26.9854V26.9854C53.1483 27.3316 53.2587 27.7909 53.6117 27.9994L54.895 28.7577C55.2445 28.9642 55.459 29.34 55.459 29.746V29.746C55.459 30.4394 56.0689 30.9745 56.7564 30.8842L58.3619 30.6734C58.8964 30.6032 59.4365 30.7517 59.86 31.0853L60.6351 31.696C60.9179 31.9188 61.2556 32.0611 61.6125 32.108L64.4008 32.4741C64.6681 32.5092 64.9256 32.598 65.1578 32.7352L66.1258 33.3071C66.8327 33.7248 67.7235 33.6652 68.3684 33.1571L68.785 32.8289C69.3552 32.3797 70.1736 32.4382 70.6741 32.9639V32.9639C71.2161 33.5333 72.1196 33.5479 72.6797 32.9963L73.2265 32.4578C73.7899 31.903 74.6272 31.7322 75.3628 32.022L75.9125 32.2385C76.3836 32.4241 76.9075 32.4241 77.3785 32.2385L79.1381 31.5455L79.6513 31.3433C80.1224 31.1577 80.6463 31.1577 81.1173 31.3433L81.6239 31.5428C82.3814 31.8412 83.2441 31.6506 83.8054 31.061L84.3548 30.4839C84.6107 30.2151 84.9364 30.0228 85.2954 29.9285L85.3957 29.9022C86.1411 29.7064 86.9326 29.9564 87.4304 30.5446L87.6626 30.819C87.7947 30.9751 87.95 31.11 88.123 31.2191L90.2678 32.5708C90.7218 32.857 91.2718 32.9486 91.7942 32.8252L96.5991 31.6896C96.9961 31.5958 97.4124 31.6256 97.7921 31.7751L98.6856 32.1271C99.3187 32.3765 100.035 32.2868 100.587 31.8891L101.904 30.9408C102.245 30.6956 102.653 30.5636 103.073 30.5636H107.802L111.348 30.9627C111.871 31.0215 112.396 30.8719 112.809 30.5463L113.311 30.1507C113.77 29.7896 114.363 29.6467 114.936 29.7595L115.962 29.9617C116.327 30.0336 116.657 30.2274 116.897 30.5113V30.5113C117.405 31.1115 118.268 31.2667 118.953 30.8811L121.999 29.1669C122.089 29.1163 122.175 29.0588 122.256 28.995L122.833 28.5403C123.181 28.2666 123.63 28.1583 124.064 28.2437V28.2437C125.001 28.4282 125.873 27.7112 125.873 26.7564V26.5701C125.873 26.2914 125.943 26.0172 126.076 25.7725L127.202 23.7019C127.485 23.1829 128.166 23.0429 128.63 23.4085V23.4085C129.125 23.7979 129.854 23.6104 130.099 23.031L130.872 21.2032C131.23 20.3573 132.118 19.864 133.025 20.0069L134.38 20.2203C134.524 20.2431 134.666 20.2816 134.802 20.3351L136.412 20.9694C136.817 21.129 137.279 21.0127 137.56 20.6804V20.6804C137.966 20.2007 138.706 20.2007 139.112 20.6804L139.406 21.0279C139.522 21.1656 139.664 21.2795 139.824 21.3633L140.165 21.5423C140.892 21.9242 141.79 21.6844 142.23 20.9909L142.631 20.3591C142.845 20.0226 143.281 19.9063 143.634 20.0916V20.0916C143.831 20.195 144.063 20.2076 144.27 20.1261L144.406 20.0726C144.867 19.8909 145.147 19.4193 145.084 18.9273L144.678 15.727C144.607 15.1711 144.773 14.611 145.135 14.1832L146.909 12.0874C147.009 11.9689 147.095 11.8392 147.165 11.7009L147.482 11.0767C147.949 10.157 149.039 9.74329 149.999 10.1213L151.312 10.6385C151.783 10.8241 152.307 10.8241 152.778 10.6385L155.321 9.6366C155.59 9.53092 155.895 9.63049 156.05 9.87396V9.87396C156.241 10.1749 156.65 10.2447 156.93 10.0241L157.548 9.53709C157.985 9.19332 158.59 9.16153 159.06 9.45772L160.197 10.1743C160.913 10.6257 161.836 10.5772 162.501 10.0533L162.974 9.68104C163.164 9.53129 163.379 9.41727 163.61 9.34454L165.496 8.75032C166.055 8.57419 166.508 8.16181 166.737 7.62213L167 7" stroke="#06A85A"/>
</g>
<defs>
<linearGradient id="paint0_linear_617_13949" x1="83.5" y1="7" x2="83.5" y2="62" gradientUnits="userSpaceOnUse">
<stop stop-color="#06A85A"/>
<stop offset="1" stop-color="#06A85A" stop-opacity="0"/>
</linearGradient>
<clipPath id="clip0_617_13949">
<rect width="166" height="56" fill="white"/>
</clipPath>
</defs>
</svg>
