<svg width="180" height="48" viewBox="0 0 180 48" fill="none" xmlns="http://www.w3.org/2000/svg">
<path d="M24 48C37.2548 48 48 37.2548 48 24C48 10.7452 37.2548 0 24 0C10.7452 0 0 10.7452 0 24C0 37.2548 10.7452 48 24 48Z" fill="#0093DD"/>
<path fill-rule="evenodd" clip-rule="evenodd" d="M20.31 23.9987L28.071 31.9937L32.9685 26.9492C33.171 26.7379 33.4141 26.5698 33.6832 26.455C33.9523 26.3401 34.2419 26.2809 34.5345 26.2809C34.8271 26.2809 35.1167 26.3401 35.3858 26.455C35.6549 26.5698 35.898 26.7379 36.1005 26.9492C36.5171 27.3832 36.7497 27.9616 36.7497 28.5632C36.7497 29.1648 36.5171 29.7431 36.1005 30.1772L29.637 36.8372C29.4335 37.0465 29.19 37.213 28.921 37.3266C28.652 37.4403 28.363 37.4988 28.071 37.4988C27.779 37.4988 27.49 37.4403 27.221 37.3266C26.952 37.213 26.7085 37.0465 26.505 36.8372L17.181 27.2282V32.9402C17.181 34.1942 16.182 35.2232 14.9655 35.2232C13.7415 35.2232 12.75 34.2002 12.75 32.9402V15.0587C12.75 13.7987 13.7415 12.7757 14.9655 12.7757C16.188 12.7757 17.181 13.7987 17.181 15.0587V20.7707L26.505 11.1617C26.7085 10.9523 26.952 10.7859 27.221 10.6722C27.49 10.5586 27.779 10.5 28.071 10.5C28.363 10.5 28.652 10.5586 28.921 10.6722C29.19 10.7859 29.4335 10.9523 29.637 11.1617L36.102 17.8217C36.5186 18.2557 36.7512 18.8341 36.7512 19.4357C36.7512 20.0373 36.5186 20.6156 36.102 21.0497C35.8995 21.2614 35.6562 21.4299 35.3868 21.545C35.1174 21.6601 34.8275 21.7195 34.5345 21.7195C34.2415 21.7195 33.9516 21.6601 33.6822 21.545C33.4128 21.4299 33.1695 21.2614 32.967 21.0497L28.071 16.0037L20.31 23.9987ZM28.074 21.7142C29.298 21.7142 30.291 22.7372 30.291 23.9987C30.291 25.2602 29.298 26.2832 28.074 26.2832C26.85 26.2832 25.857 25.2602 25.857 23.9987C25.857 22.7372 26.85 21.7142 28.074 21.7142Z" fill="white"/>
<path d="M85.248 33H79.328L71.424 22.056V33H66.56V10.6H71.424V20.936L78.752 10.6H84.416L76.768 21.32L85.248 33ZM99.9688 31.368C98.4968 32.776 96.5341 33.48 94.0808 33.48C91.6488 33.48 89.6861 32.7653 88.1927 31.336C86.7208 29.9067 85.9848 28.0293 85.9848 25.704V15.72H90.6568V25.16C90.6568 26.3973 90.9554 27.368 91.5528 28.072C92.1714 28.7547 93.0141 29.096 94.0808 29.096C95.1688 29.096 96.0114 28.7547 96.6088 28.072C97.2274 27.368 97.5368 26.3973 97.5368 25.16V15.72H102.209V25.704C102.209 28.0507 101.462 29.9387 99.9688 31.368ZM117.051 33.48C114.896 33.48 112.933 32.9787 111.163 31.976C109.392 30.952 108.005 29.5547 107.003 27.784C106 25.992 105.499 24.008 105.499 21.832C105.499 18.504 106.597 15.72 108.795 13.48C111.013 11.24 113.765 10.12 117.051 10.12C119.781 10.12 122.139 10.9413 124.123 12.584C126.107 14.2267 127.365 16.3813 127.899 19.048H123.035C122.736 18.1733 122.299 17.416 121.723 16.776C121.147 16.1147 120.453 15.6133 119.643 15.272C118.853 14.9093 117.989 14.728 117.051 14.728C115.152 14.728 113.563 15.4107 112.283 16.776C111.024 18.12 110.395 19.8053 110.395 21.832C110.395 23.8373 111.024 25.512 112.283 26.856C113.563 28.2 115.152 28.872 117.051 28.872C118.523 28.872 119.792 28.456 120.859 27.624C121.925 26.792 122.661 25.6613 123.067 24.232H127.963C127.451 27.0053 126.192 29.2453 124.187 30.952C122.203 32.6373 119.824 33.48 117.051 33.48ZM139.37 33.48C137.6 33.48 136 33.0853 134.57 32.296C133.141 31.5067 132.021 30.4187 131.21 29.032C130.421 27.624 130.026 26.0667 130.026 24.36C130.026 21.736 130.912 19.56 132.682 17.832C134.453 16.104 136.682 15.24 139.37 15.24C142.037 15.24 144.256 16.104 146.026 17.832C147.797 19.56 148.682 21.736 148.682 24.36C148.682 26.9627 147.786 29.1387 145.994 30.888C144.224 32.616 142.016 33.48 139.37 33.48ZM139.37 29.096C140.714 29.096 141.813 28.6587 142.666 27.784C143.52 26.888 143.946 25.7467 143.946 24.36C143.946 22.9733 143.52 21.8427 142.666 20.968C141.813 20.072 140.704 19.624 139.338 19.624C137.994 19.624 136.896 20.072 136.042 20.968C135.189 21.8427 134.762 22.9733 134.762 24.36C134.762 25.0427 134.869 25.6827 135.082 26.28C135.317 26.8773 135.637 27.3787 136.042 27.784C136.448 28.1893 136.928 28.5093 137.482 28.744C138.058 28.9787 138.688 29.096 139.37 29.096ZM152.053 13.416V9.064H156.725V13.416H152.053ZM152.053 33V15.72H156.725V33H152.053ZM171.065 15.304C173.027 15.304 174.574 15.9653 175.705 17.288C176.857 18.5893 177.433 20.3387 177.433 22.536V33H172.761V23.272C172.761 20.6907 171.758 19.4 169.753 19.4C168.963 19.4 168.27 19.5813 167.673 19.944C167.097 20.3067 166.649 20.8293 166.329 21.512C166.03 22.1947 165.881 22.9947 165.881 23.912V33H161.209V15.72H164.409L165.337 17.864C165.657 17.4587 166.019 17.1067 166.425 16.808C166.851 16.488 167.31 16.2213 167.801 16.008C168.291 15.7733 168.803 15.6027 169.337 15.496C169.891 15.368 170.467 15.304 171.065 15.304Z" fill="#353535"/>
</svg>
